<?xml version="1.0" standalone="no"?>
<!DOCTYPE svg PUBLIC "-//W3C//DTD SVG 20010904//EN"
 "http://www.w3.org/TR/2001/REC-SVG-20010904/DTD/svg10.dtd">
<svg version="1.0" xmlns="http://www.w3.org/2000/svg"
 width="16.000000pt" height="16.000000pt" viewBox="0 0 16.000000 16.000000"
 preserveAspectRatio="xMidYMid meet">
<metadata>
Created by potrace 1.11, written by Peter Selinger 2001-2013
</metadata>
<g transform="translate(0.000000,16.000000) scale(0.002667,-0.002667)"
fill="#000000" stroke="none">
<path d="M2355 5691 c-3 -5 -2 -12 3 -15 5 -3 9 1 9 9 0 17 -3 19 -12 6z"/>
<path d="M2215 5620 c3 -5 8 -10 11 -10 2 0 4 5 4 10 0 6 -5 10 -11 10 -5 0
-7 -4 -4 -10z"/>
<path d="M2470 5616 c0 -2 8 -10 18 -17 15 -13 16 -12 3 4 -13 16 -21 21 -21
13z"/>
<path d="M2060 5606 c0 -2 8 -10 18 -17 15 -13 16 -12 3 4 -13 16 -21 21 -21
13z"/>
<path d="M2236 5602 c-3 -5 1 -9 9 -9 8 0 12 4 9 9 -3 4 -7 8 -9 8 -2 0 -6 -4
-9 -8z"/>
<path d="M2340 5600 c-9 -6 -10 -10 -3 -10 6 0 15 5 18 10 8 12 4 12 -15 0z"/>
<path d="M2110 5586 c0 -2 7 -7 16 -10 8 -3 12 -2 9 4 -6 10 -25 14 -25 6z"/>
<path d="M2156 5581 c-3 -5 2 -15 12 -22 15 -12 16 -12 5 2 -7 9 -10 19 -6 22
3 4 4 7 0 7 -3 0 -8 -4 -11 -9z"/>
<path d="M2275 5582 c3 -3 -1 -12 -7 -21 -8 -10 -4 -9 10 3 26 23 26 23 7 23
-8 0 -13 -3 -10 -5z"/>
<path d="M2415 5581 c-3 -5 -2 -12 3 -15 5 -3 9 1 9 9 0 17 -3 19 -12 6z"/>
<path d="M2455 5580 c3 -5 8 -10 11 -10 2 0 4 5 4 10 0 6 -5 10 -11 10 -5 0
-7 -4 -4 -10z"/>
<path d="M1995 5571 c-3 -5 -2 -12 3 -15 5 -3 9 1 9 9 0 17 -3 19 -12 6z"/>
<path d="M2313 5566 c0 -17 53 -15 69 4 11 12 11 12 -2 3 -16 -12 -37 -12 -56
-1 -6 4 -11 1 -11 -6z"/>
<path d="M2026 5558 c3 -5 9 -7 12 -4 3 3 12 0 21 -6 13 -10 14 -10 4 2 -15
16 -46 23 -37 8z"/>
<path d="M2093 5555 c0 -7 7 -11 15 -7 11 4 13 1 7 -8 -5 -9 -4 -11 3 -6 16
10 15 14 -6 25 -14 7 -19 6 -19 -4z"/>
<path d="M2395 5540 c6 -30 16 -40 12 -12 -2 12 -6 24 -10 28 -3 4 -4 -4 -2
-16z"/>
<path d="M2147 5529 c4 -13 8 -18 11 -10 2 7 -1 18 -6 23 -8 8 -9 4 -5 -13z"/>
<path d="M2193 5535 c0 -8 4 -12 9 -9 4 3 8 9 8 15 0 5 -4 9 -8 9 -5 0 -9 -7
-9 -15z"/>
<path d="M2776 5543 c-2 -3 -95 -13 -158 -17 -23 -2 -54 -7 -68 -10 -14 -4
-45 -9 -70 -11 -25 -2 -45 -4 -45 -5 0 -3 -55 -12 -82 -14 -13 0 -23 -4 -23
-8 0 -6 -94 -23 -117 -21 -7 0 -13 -3 -13 -7 0 -4 -9 -10 -20 -13 -11 -3 -18
-2 -15 3 6 10 -24 22 -36 14 -5 -3 -9 -11 -9 -17 0 -7 4 -6 10 3 5 8 12 11 17
7 4 -5 1 -12 -7 -17 -22 -14 -30 -12 -30 6 0 11 -6 14 -22 8 -20 -6 -21 -5
-10 9 7 9 22 16 33 16 10 1 28 1 39 2 11 0 20 5 20 10 0 6 -4 8 -9 5 -9 -6
-26 22 -22 38 1 5 -5 4 -13 -3 -9 -7 -14 -17 -11 -21 3 -4 -6 -15 -20 -24 -13
-9 -29 -25 -35 -36 -10 -18 -8 -19 13 -11 18 7 24 6 24 -5 0 -8 -3 -12 -5 -9
-3 3 -11 0 -19 -6 -7 -6 -13 -8 -13 -4 0 4 -7 2 -15 -5 -12 -10 -15 -10 -15 1
-1 10 -5 9 -14 -4 -8 -10 -20 -17 -28 -16 -7 2 -23 -2 -35 -9 -19 -11 -22 -10
-17 3 5 11 2 13 -10 9 -9 -3 -13 -11 -9 -17 3 -5 1 -7 -4 -4 -6 4 -14 -1 -18
-11 -6 -15 -8 -15 -18 -1 -7 8 -21 19 -32 23 -13 6 -16 10 -7 13 7 3 20 -1 29
-9 13 -10 15 -10 9 0 -5 8 -3 11 6 10 7 -2 12 3 10 10 -1 8 2 11 8 7 5 -3 8 0
5 7 -6 16 11 45 21 35 4 -3 1 -13 -6 -22 -10 -12 -10 -15 1 -15 12 0 12 -2 0
-9 -11 -7 22 -8 83 -2 6 1 1 8 -10 16 -10 8 -14 15 -8 15 5 0 15 -5 22 -12 7
-7 13 -8 13 -2 1 5 2 16 3 24 0 8 9 14 18 14 10 -1 20 7 23 17 4 11 13 19 21
19 8 0 14 4 14 10 0 6 -10 5 -25 -2 -13 -6 -22 -15 -19 -20 4 -6 -2 -8 -11 -6
-10 1 -20 9 -23 16 -2 7 2 11 8 10 7 -2 15 4 17 12 4 13 3 13 -6 0 -6 -8 -11
-11 -11 -5 0 5 -5 4 -12 -3 -8 -8 -8 -15 1 -26 8 -10 9 -16 1 -21 -5 -3 -10
-1 -10 6 0 7 -3 10 -6 6 -3 -3 -14 3 -25 14 -10 10 -25 19 -31 19 -7 -1 -2 -7
11 -14 l24 -13 -22 -12 c-12 -7 -25 -9 -30 -6 -14 8 -42 -6 -34 -17 4 -7 -3
-9 -20 -6 -19 4 -24 1 -20 -10 5 -12 2 -12 -14 -3 -17 8 -22 7 -27 -5 -4 -9
-1 -23 5 -31 19 -22 4 -25 -16 -3 -12 14 -15 23 -8 32 14 18 23 59 12 52 -5
-3 -9 -14 -9 -25 0 -11 -4 -18 -9 -15 -5 4 -8 -5 -6 -19 3 -28 -4 -31 -25 -13
-13 11 -13 11 -2 -1 20 -24 14 -36 -8 -16 -11 10 -18 21 -15 25 2 4 -2 7 -10
7 -18 0 -20 -13 -2 -21 8 -3 4 -12 -13 -27 -14 -12 -24 -25 -23 -29 1 -5 -5
-11 -13 -14 -11 -4 -15 -2 -11 8 8 20 -23 29 -37 11 -6 -9 -23 -22 -36 -28
-16 -9 -24 -20 -22 -32 3 -17 2 -17 -14 -4 -11 8 -15 9 -10 2 9 -16 -35 -13
-46 2 -5 6 -8 6 -8 -2 0 -6 10 -19 22 -27 12 -9 20 -16 18 -17 -3 0 -13 -2
-22 -4 -10 -2 -18 3 -18 10 0 7 -7 16 -16 19 -8 3 -13 2 -9 -3 3 -5 2 -11 -2
-14 -5 -2 -2 -2 5 0 8 1 12 -3 10 -9 -3 -7 -14 -13 -24 -14 -11 -1 -33 -10
-49 -20 -32 -21 -34 -21 -46 -2 -7 10 -9 10 -9 0 0 -7 -5 -10 -12 -6 -6 4 -8
3 -4 -4 3 -6 15 -9 26 -7 11 2 20 -2 20 -8 0 -7 4 -6 10 3 5 8 10 13 11 10 0
-3 2 -13 4 -22 2 -11 -3 -16 -16 -15 -10 1 -19 4 -19 7 0 4 -6 7 -12 8 -7 0
-23 3 -35 5 -23 6 -40 -17 -21 -29 6 -4 8 -3 4 4 -3 5 0 12 6 15 18 6 59 -14
52 -25 -3 -4 -10 -6 -15 -3 -5 3 -6 -1 -3 -9 7 -18 20 -21 29 -6 3 5 15 15 27
21 16 9 19 8 13 -2 -6 -9 -3 -11 8 -6 9 3 19 2 22 -4 4 -5 3 -8 -2 -7 -18 5
-53 -14 -46 -25 4 -7 -1 -6 -10 2 -9 7 -17 9 -17 3 0 -5 -9 -8 -20 -5 -11 3
-18 8 -16 12 2 3 -1 15 -5 26 -9 18 -9 18 -5 -3 3 -13 -2 -26 -12 -31 -16 -9
-16 -11 1 -28 10 -10 17 -13 17 -5 0 7 -5 12 -11 12 -5 0 -7 5 -3 11 5 8 9 8
14 -1 4 -6 10 -11 14 -11 27 4 23 -3 -17 -30 -26 -17 -47 -36 -47 -42 0 -6 -3
-7 -6 -4 -4 4 -1 13 5 21 10 12 9 15 -8 13 -16 -1 -20 -7 -17 -24 3 -14 0 -22
-7 -20 -7 1 -11 -4 -9 -11 1 -8 -2 -11 -7 -8 -5 4 -12 0 -14 -6 -4 -10 -6 -10
-6 0 -1 6 -6 12 -12 12 -6 0 -9 -7 -6 -15 4 -8 1 -17 -5 -21 -7 -4 -8 -3 -4 4
5 8 -2 12 -20 12 -26 0 -27 0 -9 20 22 25 43 27 24 3 -8 -10 2 -6 21 8 19 15
35 33 35 40 0 8 7 14 15 14 8 0 21 4 28 8 7 5 12 4 12 -2 0 -6 5 -11 11 -11 8
0 9 4 0 13 -6 8 -7 18 -3 23 4 4 -1 2 -10 -5 -10 -7 -18 -10 -18 -7 0 4 -8 2
-19 -3 -10 -6 -21 -7 -25 -4 -4 4 3 12 15 18 19 11 19 13 5 18 -10 4 -15 3
-11 -3 6 -10 -9 -15 -30 -10 -5 1 -1 -7 8 -18 16 -18 16 -20 2 -26 -24 -9 -25
-8 -19 12 5 14 4 14 -4 2 -6 -8 -9 -17 -7 -21 3 -3 -7 -16 -20 -29 -21 -20
-27 -21 -42 -9 -16 13 -16 13 0 -11 22 -31 22 -46 0 -29 -11 10 -14 10 -9 2 7
-12 -5 -18 -27 -14 -5 1 -6 -3 -2 -9 3 -5 1 -10 -4 -10 -6 0 -11 8 -11 18 0
14 -2 15 -10 2 -11 -18 8 -32 34 -24 10 4 16 2 13 -3 -3 -5 -2 -15 2 -22 6 -9
11 -10 15 -2 4 6 3 11 -2 11 -5 0 -9 7 -9 15 0 8 5 11 10 8 6 -3 7 -2 4 4 -3
5 0 10 8 10 8 0 11 -5 8 -10 -3 -6 -1 -7 6 -3 6 4 9 12 6 17 -4 5 -1 9 4 9 6
0 11 -7 11 -15 0 -14 -12 -20 -34 -16 -5 1 -6 -5 -3 -13 3 -8 -1 -20 -9 -26
-8 -7 -14 -9 -14 -4 0 5 -9 -2 -20 -16 -18 -24 -19 -24 -17 -3 0 12 5 19 11
16 5 -4 6 -1 1 7 -6 9 -4 11 5 5 9 -5 11 -4 6 4 -4 6 -11 9 -16 6 -5 -3 -11
-1 -15 5 -3 5 -16 10 -28 9 -20 -1 -20 -2 3 -9 14 -4 21 -8 16 -9 -5 -1 -2 -8
5 -17 12 -15 11 -16 -9 -10 -14 5 -22 3 -22 -4 0 -6 -5 -8 -10 -5 -8 5 -7 12
2 23 11 15 11 15 -3 5 -9 -7 -20 -9 -25 -5 -4 4 -2 -2 6 -12 14 -18 13 -19 -3
-13 -11 4 -16 3 -12 -4 4 -6 13 -8 21 -5 7 3 18 -3 23 -12 9 -14 11 -14 12 -2
1 8 0 19 -1 25 -1 5 2 6 6 2 14 -14 11 -32 -12 -55 -18 -19 -23 -20 -28 -7 -4
11 -2 14 6 9 7 -5 8 -3 3 6 -6 9 -4 11 5 5 9 -5 11 -4 6 4 -4 6 -12 9 -17 5
-5 -3 -16 0 -24 6 -10 8 -15 9 -15 2 0 -6 -6 -10 -12 -8 -7 1 -10 1 -5 -1 4
-3 4 -10 0 -16 -4 -7 1 -6 10 2 20 16 25 13 30 -19 3 -19 -8 -37 -47 -75 -28
-27 -50 -53 -49 -57 2 -4 -5 -4 -14 -1 -11 4 -14 3 -9 -5 4 -7 2 -12 -3 -12
-17 0 -13 18 7 29 9 6 11 11 5 11 -7 0 -13 5 -13 11 0 8 4 8 14 0 10 -8 16 -9
21 -1 4 6 1 9 -6 8 -6 -2 -14 3 -16 10 -4 11 -1 12 17 2 16 -8 20 -9 15 -1 -3
6 -3 11 2 10 20 -3 34 2 28 10 -3 6 3 14 12 20 11 6 13 11 5 11 -7 0 -10 5 -6
11 5 8 9 8 14 -1 5 -8 9 -7 13 4 9 22 -8 29 -26 12 -8 -8 -18 -12 -23 -8 -5 4
-2 -2 6 -12 14 -18 13 -19 -3 -13 -27 10 -50 -2 -36 -19 13 -16 -2 -19 -17 -4
-7 7 -11 7 -12 -2 -6 -51 -10 -62 -20 -66 -6 -2 -8 -11 -5 -20 6 -15 5 -15
-11 -3 -16 14 -16 16 -2 27 14 10 13 12 -10 12 -18 0 -22 -3 -13 -9 8 -5 10
-9 5 -9 -5 0 -3 -7 4 -15 17 -21 1 -19 -24 2 -18 15 -18 14 2 -8 27 -30 28
-38 4 -34 -9 1 -11 0 -4 -2 7 -3 9 -10 5 -16 -4 -7 1 -6 10 2 9 7 17 19 17 25
0 7 9 12 19 13 15 1 12 -5 -15 -32 -19 -19 -34 -38 -34 -42 0 -5 -20 -28 -44
-53 -24 -25 -42 -48 -40 -51 2 -4 -3 -10 -12 -13 -17 -6 -12 6 14 37 8 9 13
20 10 22 -3 3 -15 -9 -26 -27 -13 -20 -17 -37 -12 -42 6 -6 -1 -21 -15 -38
-14 -16 -25 -34 -25 -39 0 -5 -5 -9 -12 -9 -9 0 -9 3 0 12 15 15 15 28 1 28
-5 0 -7 -5 -4 -10 3 -6 -1 -13 -10 -16 -13 -5 -14 -9 -4 -15 8 -4 10 -12 5
-16 -4 -4 -14 1 -22 11 -8 11 -14 15 -14 9 0 -7 5 -15 10 -18 6 -4 7 -11 4
-17 -4 -7 -2 -8 4 -4 7 4 12 2 12 -3 0 -6 -4 -11 -10 -11 -5 0 -12 -11 -16
-25 -6 -24 -10 -27 -43 -29 -8 -1 -15 -9 -17 -19 -3 -19 12 -23 19 -4 2 6 7 9
11 6 3 -3 -3 -17 -14 -31 -10 -14 -16 -28 -13 -32 3 -3 -1 -6 -11 -6 -11 0
-16 -6 -14 -18 4 -27 -21 -69 -45 -76 -12 -3 -18 -8 -14 -12 4 -4 -5 -16 -20
-26 -16 -10 -24 -18 -20 -18 16 0 57 32 51 41 -3 5 0 9 5 9 14 0 14 0 -10 -55
-16 -35 -23 -44 -30 -34 -5 8 -9 9 -9 4 0 -6 4 -15 9 -20 6 -6 0 -29 -14 -58
-13 -26 -23 -49 -22 -50 5 -6 -28 -107 -35 -107 -4 0 -8 5 -8 12 0 6 -3 9 -6
6 -3 -4 -1 -16 6 -28 11 -21 5 -64 -9 -55 -5 2 -6 -6 -4 -19 5 -26 -11 -42
-30 -29 -7 4 -5 1 5 -9 15 -13 16 -21 7 -45 -6 -15 -10 -29 -10 -30 6 -19 -2
-63 -10 -63 -6 0 -9 7 -5 15 8 22 -2 18 -14 -5 -8 -16 -8 -20 2 -18 12 3 14
-9 9 -75 0 -10 -5 -16 -10 -13 -5 3 -15 -2 -22 -12 -13 -15 -12 -16 3 -4 11 9
18 10 23 2 3 -5 0 -13 -9 -16 -8 -3 -17 -13 -20 -21 -6 -14 -4 -14 10 -2 16
13 16 10 9 -36 -4 -28 -7 -59 -7 -70 1 -10 -4 -26 -11 -34 -7 -8 -7 -12 -1 -8
6 3 11 0 11 -8 0 -8 -4 -12 -9 -9 -4 3 -8 0 -8 -5 0 -6 4 -11 8 -11 7 0 8 -68
2 -77 -7 -10 -3 -166 3 -170 4 -3 1 -16 -8 -29 -9 -15 -11 -23 -4 -22 6 2 14
-3 16 -9 3 -7 0 -13 -6 -13 -6 0 -11 -5 -11 -11 0 -5 4 -8 9 -5 5 3 9 -11 9
-32 1 -20 3 -49 5 -65 4 -24 2 -26 -12 -15 -11 9 -10 5 3 -9 10 -12 16 -29 13
-36 -3 -8 0 -20 6 -26 9 -9 8 -14 -3 -21 -9 -6 -10 -10 -3 -10 18 0 21 -34 3
-47 -12 -10 -13 -14 -2 -25 11 -11 12 -10 7 5 -4 9 -3 17 3 17 8 0 19 -51 27
-130 1 -8 4 -22 8 -30 4 -13 13 -45 22 -85 2 -5 10 -37 20 -70 9 -33 18 -67
19 -75 2 -8 6 -22 10 -30 20 -50 43 -129 39 -134 -4 -3 -1 -6 6 -6 7 0 9 -4 6
-10 -3 -5 -1 -10 5 -10 7 0 10 -7 6 -15 -3 -8 -1 -15 4 -15 6 0 10 -7 10 -15
0 -9 7 -27 16 -40 9 -14 14 -32 10 -40 -4 -11 -2 -14 6 -9 8 5 9 2 5 -10 -4
-10 -3 -15 3 -11 6 3 13 -2 16 -12 3 -10 10 -29 16 -43 5 -14 9 -26 9 -28 -1
-1 5 -10 14 -18 8 -9 13 -20 10 -25 -4 -5 -3 -9 2 -9 13 0 44 -61 36 -72 -3
-7 -1 -8 5 -4 11 6 14 1 11 -20 0 -3 7 -11 17 -18 11 -8 14 -18 9 -27 -5 -8
-5 -11 0 -7 8 8 75 -83 75 -102 0 -5 5 -10 10 -10 6 0 10 -4 10 -10 0 -5 7
-18 14 -27 8 -10 46 -58 85 -107 38 -48 86 -106 105 -127 20 -21 36 -43 36
-49 0 -5 7 -10 15 -10 14 0 20 -12 16 -33 -1 -5 2 -6 7 -3 5 3 48 -33 96 -79
48 -47 90 -85 92 -85 3 0 29 -22 57 -50 28 -27 55 -50 60 -50 4 0 5 -5 2 -10
-4 -6 -2 -9 3 -8 11 3 27 -7 96 -58 22 -16 64 -43 91 -59 28 -15 52 -31 55
-34 3 -4 55 -31 115 -61 61 -30 112 -58 113 -62 2 -5 10 -8 18 -8 8 0 22 -4
32 -9 9 -6 51 -22 92 -38 41 -15 78 -32 82 -38 4 -5 8 -7 8 -3 0 4 11 3 25 -2
14 -5 38 -12 53 -15 15 -2 28 -9 30 -14 2 -6 10 -7 18 -4 8 3 14 1 14 -4 0 -5
10 -9 23 -8 12 1 30 -2 39 -7 10 -4 52 -15 95 -24 43 -8 85 -18 93 -21 22 -9
43 -12 180 -29 14 -1 41 -6 60 -10 19 -4 55 -8 80 -10 25 -1 47 -3 50 -4 3 -1
25 -1 49 0 42 2 44 1 30 -17 -13 -17 -13 -17 4 -4 20 16 87 24 87 10 0 -6 8
-5 20 1 15 8 20 8 20 -2 0 -9 3 -9 12 0 15 15 31 16 22 0 -4 -7 -3 -8 5 -4 20
13 60 16 66 6 4 -7 13 -6 26 1 15 8 24 7 37 -3 11 -9 14 -10 8 0 -5 9 6 12 46
12 29 0 70 4 91 9 26 6 37 6 37 -3 0 -8 3 -7 8 1 4 7 31 13 60 15 28 2 52 8
52 13 0 6 5 3 10 -5 5 -8 10 -10 10 -4 0 6 6 11 13 11 6 0 25 4 41 8 20 5 27
5 22 -3 -3 -6 -1 -14 5 -18 7 -4 9 -3 6 3 -9 15 12 31 48 36 17 2 37 7 45 10
8 4 29 8 47 10 17 2 39 9 47 16 12 10 17 9 26 -6 10 -16 11 -16 6 0 -5 16 3
21 21 15 5 -2 7 -7 5 -13 -2 -5 0 -6 5 -2 4 5 8 14 8 20 0 7 5 12 12 12 6 0
15 3 19 8 4 4 14 7 23 7 9 0 28 6 43 14 20 10 29 11 39 2 6 -6 9 -6 6 -1 -7
14 22 33 46 29 9 -1 15 2 11 7 -5 8 10 13 19 7 2 -2 11 3 20 11 9 7 23 11 31
8 10 -4 13 -1 9 9 -5 13 8 18 44 17 7 -1 10 3 7 8 -5 8 3 11 23 8 3 0 10 6 15
15 13 22 28 20 23 -4 -2 -11 0 -22 5 -25 5 -3 7 3 5 14 -4 20 25 61 42 61 12
0 196 122 201 133 2 4 10 7 17 7 8 0 19 8 24 17 6 10 11 15 11 11 0 -4 11 4
25 18 14 14 30 22 37 18 6 -4 8 -3 5 3 -4 6 0 16 8 23 12 10 19 10 33 -1 15
-12 16 -12 5 1 -7 9 -8 21 -4 29 7 11 11 9 20 -6 5 -11 8 -23 5 -25 -2 -3 3
-11 13 -19 15 -12 16 -12 8 1 -5 8 -10 20 -11 25 -1 6 -5 18 -9 27 -5 12 4 24
34 45 22 15 40 33 41 38 0 11 50 44 62 42 3 -1 10 2 15 7 5 5 3 6 -4 2 -18
-10 -16 0 4 23 9 11 20 18 24 15 4 -2 11 5 14 17 5 15 13 19 27 16 15 -4 17
-3 7 9 -9 11 -8 15 5 20 9 3 13 11 9 17 -3 6 -1 7 5 3 7 -4 12 -4 12 1 0 14
55 73 68 73 7 0 10 5 7 10 -3 6 1 13 9 16 9 3 13 10 10 15 -3 5 0 9 5 9 6 0
11 5 11 10 0 6 12 22 26 35 15 14 24 25 20 25 -7 0 9 22 36 47 9 9 15 20 12
25 -3 4 2 11 10 14 9 3 16 13 16 22 0 12 3 13 12 4 14 -14 -8 -46 -25 -35 -6
3 -7 1 -3 -5 9 -15 34 -4 41 19 4 10 11 19 16 19 5 0 9 5 9 11 0 8 -4 8 -14 0
-11 -9 -15 -8 -20 4 -9 24 24 32 41 9 10 -14 14 -15 13 -4 -4 27 0 41 9 35 5
-3 12 -1 15 4 4 5 -2 8 -11 7 -10 -2 -22 2 -26 8 -5 6 -6 1 -2 -11 5 -18 3
-22 -9 -17 -25 10 -2 44 25 37 14 -4 25 0 31 11 5 9 14 13 20 10 6 -4 8 -3 4
4 -3 5 -1 12 6 14 7 3 4 7 -7 12 -11 4 -16 4 -13 0 10 -9 -29 -47 -41 -40 -7
5 -7 13 1 26 7 10 16 16 21 13 5 -3 7 4 5 14 -3 22 18 53 36 53 6 0 2 -8 -9
-17 -18 -14 -18 -15 -1 -9 10 3 24 2 31 -4 10 -8 15 -8 21 1 4 8 3 9 -4 5 -7
-4 -17 3 -23 18 -7 14 -16 23 -21 20 -5 -4 -4 3 4 15 7 12 16 21 21 21 4 0 6
4 2 9 -3 5 0 15 7 23 7 7 14 22 16 33 2 11 9 25 16 30 7 6 12 18 10 28 -1 10
2 14 9 10 7 -4 8 0 3 12 -5 15 -4 16 9 5 13 -11 14 -10 10 2 -4 9 0 15 10 15
8 0 14 -7 13 -16 -2 -8 4 -16 12 -17 10 0 10 1 2 3 -10 4 -10 10 3 30 14 21
15 27 4 34 -24 15 -34 10 -13 -6 16 -13 16 -14 2 -9 -10 3 -18 2 -18 -3 0 -5
-7 -10 -15 -10 -8 0 -15 4 -15 9 0 4 7 8 16 8 13 0 14 3 5 14 -9 10 -8 16 4
26 8 7 12 17 8 24 -4 7 -1 6 9 -1 8 -7 18 -10 21 -6 4 3 7 1 7 -6 0 -8 -6 -11
-16 -7 -14 5 -15 4 -4 -9 11 -14 14 -13 25 2 8 10 10 20 7 23 -12 9 -13 30 -2
30 6 0 15 -11 20 -25 5 -14 11 -25 14 -25 7 0 -6 40 -15 46 -5 3 -9 12 -9 21
0 12 4 10 18 -6 13 -16 21 -18 32 -11 12 9 12 10 -5 8 -12 -2 -19 2 -18 10 2
6 -2 12 -8 12 -5 0 -7 5 -4 10 5 8 12 7 23 -2 14 -12 14 -11 0 11 -15 21 -15
26 -2 38 8 8 12 19 9 24 -3 5 3 18 14 30 l20 22 -22 18 c-12 10 -17 18 -11 19
5 0 14 -4 20 -10 6 -6 15 -5 24 1 13 9 12 10 -2 6 -12 -4 -16 0 -15 14 1 10 5
19 10 19 5 0 4 6 -2 13 -11 14 -5 27 11 27 5 0 6 -4 3 -10 -3 -5 -1 -10 4 -10
12 0 9 35 -4 47 -4 5 -5 3 -2 -3 4 -7 0 -15 -9 -18 -24 -9 -28 -7 -15 7 6 8 8
17 4 20 -3 4 -1 7 6 7 7 0 10 4 7 9 -4 5 7 21 24 34 28 24 42 45 20 32 -5 -3
-10 -1 -10 4 0 16 -15 13 -40 -7 -18 -14 -19 -19 -7 -19 9 0 14 4 12 8 -6 8
21 20 28 12 10 -10 -26 -41 -42 -36 -14 4 -14 3 -1 -6 9 -7 10 -11 3 -11 -6 0
-10 -9 -8 -20 2 -11 0 -18 -5 -15 -5 3 -7 -5 -4 -17 12 -53 12 -68 -2 -68 -16
0 -19 16 -4 25 5 3 6 13 3 21 -4 12 -8 13 -14 3 -4 -7 -5 -17 -3 -21 3 -4 0
-8 -6 -8 -8 0 -9 7 -5 18 4 9 8 22 9 29 1 7 5 15 8 19 4 3 4 12 1 20 -3 8 -1
14 4 14 6 0 9 16 8 34 -1 19 2 33 6 31 4 -3 7 7 6 23 0 53 3 72 14 72 5 0 7
-6 3 -12 -5 -9 -2 -9 9 1 9 7 17 9 17 3 0 -5 -10 -17 -22 -27 -22 -16 -22 -16
4 -1 15 9 35 16 45 17 15 0 14 2 -3 9 -12 5 -25 14 -30 21 -5 9 -2 10 9 6 10
-4 23 -10 31 -13 16 -6 16 19 1 33 -4 4 -5 2 -1 -5 6 -10 0 -12 -21 -10 -20 2
-27 -1 -25 -11 3 -12 0 -12 -12 -1 -17 14 -22 25 -6 15 5 -3 8 9 6 30 -4 38 0
41 27 21 20 -16 23 -27 3 -20 -8 3 -17 1 -20 -4 -3 -5 4 -9 17 -8 16 1 22 8
24 28 1 15 -5 32 -13 39 -9 7 -14 8 -14 1 0 -6 6 -12 13 -15 6 -2 9 -8 5 -12
-14 -15 -34 15 -32 47 3 57 4 59 17 52 9 -6 9 -5 0 7 -9 11 -12 94 -3 94 1 0
4 40 6 89 2 50 10 96 17 105 7 9 8 12 1 8 -9 -5 -10 11 -7 56 5 61 -1 76 -11
27 -14 -73 -19 -90 -26 -90 -4 0 -8 -6 -7 -12 1 -37 -4 -58 -13 -53 -5 3 -7 0
-4 -8 2 -7 -1 -27 -7 -43 -7 -16 -13 -35 -15 -42 -1 -8 -11 -20 -21 -29 -10
-8 -12 -12 -5 -8 15 8 15 6 1 -33 -6 -18 -16 -29 -22 -25 -5 3 -7 1 -3 -5 3
-6 1 -22 -6 -36 -11 -25 -12 -25 -31 -9 -18 17 -18 17 0 -15 16 -28 16 -34 3
-42 -8 -5 -15 -17 -15 -27 0 -10 -6 -17 -13 -15 -7 1 -12 -3 -11 -10 4 -26
-14 -69 -27 -64 -16 6 -38 -19 -31 -36 4 -8 6 -7 6 4 1 9 5 19 10 22 12 8 8
-11 -9 -47 -13 -26 -43 -39 -37 -16 1 6 -5 14 -13 16 -12 4 -12 3 -2 -5 8 -5
13 -12 13 -16 -3 -20 0 -26 11 -20 7 5 8 3 3 -5 -5 -9 -10 -10 -18 -2 -7 7
-16 7 -29 0 -16 -9 -17 -13 -7 -25 11 -13 9 -15 -12 -11 -13 2 -19 2 -14 0 6
-2 16 -12 22 -22 10 -16 9 -20 -3 -25 -9 -3 -12 -1 -9 4 3 6 1 10 -4 10 -15 0
-14 -27 2 -33 9 -4 9 -6 -1 -6 -7 -1 -11 -5 -7 -10 3 -5 -6 -19 -21 -30 -15
-12 -23 -25 -18 -32 4 -7 3 -9 -3 -6 -5 3 -17 -10 -26 -29 -10 -19 -22 -32
-27 -29 -6 3 -10 0 -10 -8 0 -8 -9 -22 -20 -32 -11 -10 -17 -21 -15 -25 7 -11
-33 -44 -56 -45 -11 -1 -22 2 -25 7 -5 7 10 12 29 9 4 0 7 5 7 12 0 9 2 9 8 1
5 -8 11 -7 22 4 13 14 12 15 -3 9 -9 -3 -19 -2 -22 3 -6 9 8 14 28 11 5 -1 5
4 1 10 -5 8 -3 9 6 4 9 -6 11 -4 5 5 -6 9 -4 11 5 5 9 -6 11 -4 5 5 -6 9 -4
11 6 5 8 -5 11 -5 7 0 -4 4 -2 15 4 24 7 9 8 13 3 8 -4 -4 -16 0 -26 9 -13 12
-19 12 -25 3 -4 -7 -3 -10 4 -5 6 3 13 2 17 -4 3 -5 0 -10 -7 -10 -10 0 -10
-2 -1 -8 9 -6 8 -12 -6 -24 -11 -9 -21 -15 -23 -13 -1 2 -9 -3 -16 -11 -10
-11 -10 -14 0 -15 7 0 4 -4 -7 -9 -14 -5 -24 -3 -32 8 -7 9 -13 11 -13 6 0 -6
5 -15 11 -21 8 -8 4 -16 -14 -28 -15 -9 -31 -14 -36 -10 -7 3 -8 0 -5 -9 3 -9
10 -13 15 -10 5 3 9 1 9 -5 0 -5 -5 -11 -10 -13 -15 -5 -21 -46 -8 -54 6 -4 8
-2 4 4 -3 6 -2 13 4 17 6 4 7 11 4 17 -5 7 -2 8 6 3 9 -6 11 -4 5 5 -6 9 -4
11 4 5 10 -6 11 -3 1 15 -10 18 -9 21 2 18 7 -3 13 -10 13 -15 0 -6 3 -15 7
-19 4 -3 5 3 3 15 -2 14 0 19 7 15 6 -4 8 -3 4 4 -3 5 0 9 6 8 16 -2 22 -21 8
-21 -5 0 -9 -3 -7 -7 2 -8 -63 -77 -72 -76 -18 2 -25 -3 -16 -10 6 -4 -5 -22
-27 -43 -21 -21 -38 -33 -38 -27 0 5 -4 7 -10 3 -5 -3 -7 -13 -4 -23 5 -14 4
-15 -5 -2 -10 14 -16 7 -12 -13 1 -5 -4 -5 -10 -1 -9 5 -10 2 -6 -9 4 -12 2
-14 -10 -10 -10 4 -14 2 -10 -4 12 -19 -16 -33 -36 -18 -10 7 -14 16 -8 19 5
3 11 1 13 -6 3 -9 6 -9 12 0 6 11 0 14 -20 11 -4 0 -10 4 -13 10 -5 7 -14 4
-28 -8 -11 -11 -24 -17 -27 -13 -4 3 -4 -2 0 -13 7 -18 6 -18 -9 -6 -9 7 -17
10 -17 5 0 -5 -5 -2 -11 6 -9 13 -10 13 -6 0 2 -8 10 -15 17 -15 7 0 15 -5 17
-12 4 -12 -14 -12 -34 0 -6 4 -15 2 -19 -4 -4 -8 -3 -9 4 -5 7 4 12 3 12 -2 0
-16 -13 -22 -27 -11 -9 9 -13 8 -13 0 0 -6 5 -11 11 -11 5 0 7 -5 3 -12 -5 -7
-11 -5 -21 7 -7 11 -13 14 -13 8 0 -7 5 -15 10 -18 13 -8 13 -25 1 -25 -5 0
-13 9 -16 21 -7 19 -7 20 -21 2 -7 -10 -14 -22 -14 -27 0 -6 7 -1 15 10 8 10
15 14 15 7 0 -6 -6 -18 -13 -25 -18 -18 -17 -60 1 -53 7 3 16 5 18 5 2 0 4 5
4 11 0 5 -4 8 -9 4 -5 -3 -13 0 -17 6 -5 8 -3 9 6 4 9 -6 11 -4 5 5 -5 9 -4
11 3 6 8 -5 10 -1 6 11 -3 10 -2 14 3 8 10 -12 36 -19 29 -7 -8 13 28 11 37
-2 6 -7 7 -5 4 5 -3 8 4 26 15 40 l20 24 -17 -28 c-17 -29 -17 -29 7 -22 23 8
23 8 -2 -13 -20 -16 -28 -18 -39 -9 -12 10 -14 9 -8 -5 4 -12 2 -15 -9 -11
-10 4 -13 0 -8 -13 5 -16 4 -16 -5 -4 -9 13 -11 13 -12 0 -1 -8 -1 -18 0 -22
0 -5 -2 -7 -7 -7 -27 5 -41 -2 -36 -18 5 -15 4 -15 -4 -3 -6 8 -8 18 -6 22 3
4 -5 8 -18 8 -18 0 -20 2 -8 9 8 6 19 7 25 3 5 -3 4 2 -3 11 -8 9 -10 22 -6
28 4 8 3 9 -4 5 -7 -4 -12 -1 -12 8 0 8 -4 18 -10 21 -7 4 -7 -3 0 -20 13 -35
13 -40 -5 -25 -9 8 -15 8 -15 2 0 -6 6 -12 13 -15 6 -2 9 -8 5 -12 -4 -4 -15
-2 -25 6 -11 9 -14 10 -9 2 4 -7 2 -13 -3 -13 -6 0 -11 -5 -11 -11 0 -8 5 -8
15 1 8 7 15 8 15 2 0 -5 -6 -15 -14 -21 -12 -10 -17 -8 -25 7 -6 11 -7 23 -3
27 4 5 2 5 -5 1 -7 -4 -9 -14 -6 -23 4 -11 3 -14 -5 -9 -7 4 -19 0 -28 -8 -8
-9 -12 -16 -8 -16 10 0 -29 -29 -39 -30 -5 0 1 12 12 26 11 14 17 32 14 40 -6
17 -16 19 -10 2 2 -7 0 -21 -5 -31 -7 -14 -13 -15 -31 -7 -21 11 -21 11 -3 -4
11 -9 16 -16 10 -16 -5 0 -1 -7 9 -14 11 -8 14 -17 8 -20 -5 -4 -17 4 -25 16
-9 12 -19 18 -23 14 -5 -5 -2 -11 5 -13 6 -3 10 -9 7 -14 -4 -5 -17 -2 -31 7
-13 9 -24 12 -24 6 0 -5 10 -12 22 -15 12 -4 19 -9 15 -13 -4 -4 -1 -14 6 -22
10 -13 9 -14 -11 -3 -12 7 -20 17 -16 23 4 6 3 8 -4 4 -6 -3 -15 2 -21 11 -6
10 -11 13 -11 8 0 -6 6 -17 13 -24 10 -11 8 -12 -10 -7 -16 5 -23 2 -28 -14
-4 -11 -11 -18 -16 -15 -5 4 -4 15 3 28 10 21 10 21 -7 7 -10 -8 -19 -13 -21
-10 -1 3 -6 1 -11 -4 -5 -5 -3 -6 5 -2 7 4 12 1 12 -9 0 -11 -6 -15 -19 -10
-18 6 -49 -20 -38 -32 4 -3 9 2 13 11 3 9 10 16 16 16 5 0 6 -4 3 -10 -4 -6 1
-7 11 -3 11 4 15 3 10 -5 -3 -6 -1 -14 5 -17 17 -11 23 3 9 20 -10 11 -10 15
0 15 6 0 14 -9 17 -20 3 -11 9 -17 14 -14 5 3 7 9 4 14 -10 16 13 20 25 5 7
-8 9 -15 4 -16 -5 0 0 -4 11 -9 16 -7 17 -9 3 -9 -9 -1 -20 4 -23 9 -4 6 -11
7 -17 4 -6 -4 -5 -9 3 -15 7 -4 11 -11 7 -14 -3 -3 -12 0 -19 8 -8 7 -20 12
-28 9 -10 -3 -7 -9 10 -19 23 -13 23 -14 2 -8 -16 4 -30 -1 -47 -19 -24 -23
-26 -23 -31 -5 -4 10 -11 19 -16 19 -12 0 -11 -7 1 -30 7 -13 7 -21 0 -25 -6
-4 -10 -3 -9 2 4 22 -3 32 -31 43 -29 12 -30 13 -13 32 17 18 17 18 30 -4 7
-13 12 -17 13 -10 0 7 4 11 9 7 5 -3 12 -1 16 5 4 7 12 7 25 0 24 -13 27 -13
27 5 0 19 -24 27 -47 15 -25 -13 -30 -13 -24 3 3 8 -2 20 -11 27 -10 8 -15 9
-15 1 0 -6 5 -11 10 -11 6 0 10 -4 10 -9 0 -13 -41 -10 -60 3 -12 8 -13 8 -2
-4 19 -22 14 -35 -7 -16 -17 16 -18 15 -16 -18 3 -27 0 -33 -13 -31 -10 2 -19
4 -22 4 -3 1 2 6 10 11 13 9 13 10 0 10 -13 0 -13 1 0 10 8 5 11 12 7 17 -10
10 -28 -18 -20 -31 4 -5 -1 -7 -11 -3 -14 6 -15 3 -6 -13 9 -16 8 -20 -5 -20
-8 0 -14 6 -12 13 1 6 -5 13 -13 13 -8 1 -21 2 -29 3 -11 1 -12 20 -7 104 10
164 29 261 68 346 14 32 20 68 21 125 2 114 -8 176 -49 291 -87 243 -85 232
-88 470 -4 233 5 317 49 445 14 41 37 127 51 190 60 277 123 420 241 551 88
98 118 171 116 287 -1 63 -6 83 -40 149 -23 46 -49 81 -65 91 -27 16 -30 15
-72 -7 -45 -25 -55 -25 -118 3 l-38 16 0 -44 c0 -56 -17 -96 -42 -96 -19 0
-21 9 -17 80 9 169 2 234 -35 315 -51 114 -188 281 -219 269 -9 -3 -87 -112
-173 -243 -131 -197 -341 -493 -363 -511 -4 -3 -26 -30 -51 -60 -100 -124
-134 -145 -260 -165 -102 -16 -168 -70 -386 -310 -54 -60 -110 -121 -124 -134
-50 -48 -141 -99 -262 -146 -183 -72 -267 -122 -337 -201 -24 -27 -41 -57 -41
-71 0 -78 123 -182 358 -301 39 -19 39 -13 -1 -167 -28 -108 -32 -129 -42
-220 -10 -95 -32 -181 -69 -265 -31 -69 -95 -247 -100 -276 -1 -7 -8 -19 -15
-28 -7 -9 -10 -16 -5 -16 4 0 -1 -7 -12 -15 -10 -8 -23 -14 -29 -14 -5 0 -2 4
8 10 9 5 17 15 17 21 0 7 -5 6 -14 -1 -12 -10 -19 -8 -35 8 -12 12 -17 21 -12
21 5 0 14 -7 21 -15 13 -15 30 -12 30 6 0 6 -4 8 -9 5 -13 -8 -44 31 -36 45 5
7 3 10 -6 7 -8 -3 -14 -13 -14 -23 0 -10 -8 -19 -17 -21 -10 -1 -18 2 -18 8 0
6 7 7 16 4 11 -4 15 -2 11 8 -3 7 0 19 6 26 10 10 8 12 -6 6 -10 -3 -23 -6
-28 -6 -6 0 -7 -5 -3 -12 4 -7 3 -8 -5 -4 -14 9 -5 26 14 26 7 0 15 7 19 15 3
9 12 12 21 8 13 -5 14 -7 3 -14 -9 -6 -9 -9 -1 -9 6 0 15 5 18 11 4 6 13 8 20
6 7 -3 12 3 11 16 -1 11 -7 22 -14 23 -7 1 -8 0 -2 -3 23 -11 7 -18 -37 -17
-63 2 -63 2 -63 19 0 8 -4 15 -10 15 -18 0 -10 -27 12 -44 21 -15 21 -16 2 -7
-12 6 -25 7 -29 3 -5 -4 -5 -2 -2 5 4 6 2 13 -5 15 -8 3 -4 12 10 26 12 12 17
24 12 27 -5 3 -15 -4 -23 -15 -7 -11 -17 -17 -20 -13 -12 11 -8 25 5 17 7 -5
9 -2 5 9 -4 12 -2 14 10 10 27 -11 5 16 -28 32 -21 11 -29 12 -29 4 0 -7 -3
-9 -6 -6 -4 4 -1 13 6 22 7 9 9 19 5 23 -4 4 -10 1 -12 -5 -3 -7 -9 -13 -14
-13 -6 0 -8 4 -4 9 3 5 -5 12 -17 14 -16 3 -14 4 7 4 17 -1 37 3 44 8 10 6 12
4 6 -5 -5 -9 -4 -11 4 -6 14 9 11 -15 -4 -27 -5 -5 1 -5 15 -2 20 5 22 4 10
-5 -13 -11 -13 -11 0 -7 9 3 24 -1 35 -9 10 -8 13 -14 6 -14 -7 0 -9 -5 -5
-11 4 -8 9 -7 15 2 4 7 6 16 3 20 -2 4 0 10 6 14 5 3 10 12 10 18 0 7 -7 3
-15 -7 -8 -11 -18 -17 -21 -13 -4 4 -2 13 4 20 9 10 9 16 0 25 -9 9 -7 17 7
32 15 17 16 20 3 15 -22 -8 -31 -34 -18 -50 5 -6 7 -15 3 -18 -9 -9 -23 -9
-22 1 3 19 -2 32 -12 29 -6 -1 -14 4 -16 11 -3 8 1 10 11 6 9 -3 16 -2 16 3 0
17 -13 23 -27 12 -17 -14 -17 2 0 20 9 11 9 13 0 7 -12 -7 -18 5 -14 27 1 5
-3 6 -9 2 -5 -3 -10 -1 -10 4 0 6 8 11 18 11 14 0 15 2 2 10 -19 12 -32 -8
-23 -35 6 -20 5 -20 -16 -1 -19 17 -20 21 -6 28 24 14 18 36 -11 36 -16 0 -23
-5 -20 -13 2 -7 -1 -18 -7 -25 -9 -10 -9 -11 2 -5 10 6 12 4 6 -5 -5 -9 -4
-11 3 -6 8 5 10 1 6 -11 -4 -14 -3 -15 4 -4 7 9 12 10 16 2 4 -6 2 -11 -3 -11
-6 0 -11 -5 -11 -11 0 -6 5 -7 13 -2 31 19 43 7 24 -24 -6 -9 -3 -11 7 -7 9 3
16 2 16 -3 0 -13 -32 -13 -47 0 -9 6 -13 6 -13 -2 0 -6 -5 -11 -11 -11 -8 0
-8 4 0 14 15 18 3 45 -40 90 -21 23 -25 33 -17 43 12 15 -3 18 -18 3 -6 -6
-14 -2 -23 13 -13 20 -13 21 3 8 22 -19 33 -6 12 14 -9 9 -13 21 -10 27 4 6 1
8 -7 6 -8 -3 -13 -11 -11 -17 1 -6 -5 -14 -13 -17 -8 -3 -13 -9 -10 -13 2 -4
-2 -8 -10 -8 -11 0 -12 4 -4 13 7 8 6 14 -3 18 -7 3 -3 3 9 0 17 -4 21 -2 17
9 -3 10 2 18 15 22 12 3 19 11 15 16 -4 6 -11 6 -20 -2 -8 -6 -17 -9 -21 -5
-3 3 0 6 7 6 7 0 10 3 7 7 -4 3 -1 13 6 21 10 13 9 15 -6 9 -10 -4 -21 -7 -23
-7 -3 0 -2 -5 2 -12 4 -6 3 -8 -4 -5 -5 4 -9 15 -8 25 2 9 -2 21 -8 25 -6 5 0
5 14 1 22 -6 23 -5 12 9 -8 9 -21 13 -30 10 -13 -4 -13 -3 2 9 13 10 15 17 8
22 -7 4 -12 2 -12 -5 0 -8 -4 -8 -15 1 -8 7 -13 16 -10 20 3 5 -1 10 -7 13 -7
2 1 4 18 3 23 0 30 -5 27 -16 -4 -12 -3 -12 5 -1 7 9 12 10 16 2 4 -6 1 -11
-6 -11 -9 0 -9 -3 2 -10 11 -7 11 -10 2 -10 -7 0 -10 -5 -6 -11 4 -8 9 -7 15
2 6 9 8 4 5 -15 -3 -16 -2 -26 1 -22 6 5 38 -32 38 -44 0 -3 3 -9 6 -15 4 -5
5 -18 4 -28 -2 -9 1 -14 6 -11 5 3 8 0 7 -8 -2 -7 2 -12 9 -11 7 2 10 -6 8
-17 -2 -10 3 -25 12 -32 14 -11 15 -10 9 9 -6 19 -4 21 17 18 13 -3 32 2 43
11 18 15 18 15 -3 5 -27 -14 -36 -14 -28 -1 3 6 1 10 -4 10 -6 0 -11 -5 -11
-11 0 -5 -5 -7 -11 -4 -7 5 -5 12 5 23 21 24 2 59 -22 40 -14 -11 -15 -10 -9
5 4 10 7 23 7 28 0 4 8 6 18 3 14 -5 14 -4 2 4 -17 13 -30 6 -30 -16 0 -12 -3
-13 -12 -4 -9 9 -9 15 0 24 7 7 12 16 12 22 0 5 -6 2 -13 -9 -14 -18 -38 -13
-36 8 0 9 2 8 6 -1 2 -6 9 -10 14 -6 5 3 -1 14 -13 24 -13 10 -20 22 -15 26 4
4 13 0 20 -10 8 -11 21 -16 33 -13 16 4 16 5 -4 6 -13 0 -21 5 -18 9 2 4 -4
13 -15 20 -12 8 -19 9 -19 1 0 -5 -5 -7 -10 -4 -8 5 -7 11 1 21 8 10 8 18 0
27 -8 10 -7 17 1 25 8 8 7 13 -5 17 -9 3 -24 7 -33 10 -14 4 -14 8 -3 22 10
12 10 14 2 9 -9 -5 -13 -1 -13 11 0 15 -2 16 -11 3 -8 -12 -9 -11 -7 5 3 13
11 19 23 18 11 -1 14 0 7 3 -6 3 -10 10 -6 15 3 5 1 9 -5 9 -5 0 -11 -5 -13
-12 -3 -7 -7 -6 -11 5 -4 10 -2 17 6 17 6 0 2 6 -9 14 -18 13 -22 30 -15 66 1
3 6 -2 11 -10 5 -8 10 -10 10 -4 0 18 -12 24 -26 13 -7 -6 -14 -6 -18 -1 -3 6
1 12 9 16 22 8 18 21 -11 41 -30 20 -44 12 -22 -12 20 -24 20 -53 -1 -46 -13
4 -13 3 -2 -5 8 -6 10 -15 6 -22 -6 -9 -4 -11 6 -5 8 5 11 5 7 0 -4 -4 -3 -14
3 -22 9 -10 8 -13 0 -13 -7 0 -9 -4 -6 -10 4 -6 -1 -7 -12 -3 -16 6 -16 5 -4
-10 9 -11 10 -17 2 -17 -6 0 -11 3 -12 8 0 4 -2 16 -4 26 -2 11 0 27 5 36 5
10 6 20 3 24 -4 4 -12 -3 -18 -15 -10 -18 -13 -19 -18 -5 -4 10 3 21 23 32 29
18 31 41 4 41 -8 0 -13 -6 -10 -13 12 -30 -14 -21 -33 12 -24 39 -28 58 -8 29
11 -14 16 -15 22 -5 6 10 9 9 17 -1 8 -11 9 -11 5 1 -2 8 -10 15 -18 15 -8 0
-18 6 -22 13 -6 9 -14 9 -30 1 -22 -10 -22 -10 -2 8 11 10 29 27 39 38 10 11
15 14 11 6 -6 -10 -4 -12 5 -6 9 5 11 4 6 -4 -4 -6 -11 -9 -16 -6 -5 3 -8 -4
-7 -15 1 -11 7 -20 15 -20 7 0 11 4 8 8 -7 12 24 53 35 47 5 -4 9 -1 9 4 0 14
-17 14 -25 1 -5 -8 -11 -7 -20 0 -11 9 -20 6 -40 -14 -31 -31 -32 -25 -4 13
12 16 19 33 16 38 -4 5 0 10 8 10 10 0 11 -5 5 -17 -7 -13 -5 -16 13 -14 12 1
27 3 32 3 6 1 3 5 -5 10 -8 6 -18 7 -24 4 -5 -3 -6 -1 -2 5 4 7 19 10 34 7 24
-5 25 -4 5 4 -22 10 -39 45 -34 69 3 15 -37 7 -54 -11 -7 -7 -5 -8 6 -4 30 10
39 -7 18 -33 -14 -17 -22 -21 -26 -12 -2 6 -10 9 -16 5 -7 -4 -5 1 3 11 13 17
12 21 -15 42 -31 25 -40 50 -22 61 7 3 9 3 5 -2 -6 -6 51 -45 65 -45 7 0 1 40
-7 47 -4 5 -6 3 -4 -2 1 -6 -1 -12 -7 -15 -5 -3 -10 7 -10 22 -1 15 -4 30 -8
34 -7 7 -11 -8 -8 -36 1 -11 -2 -10 -10 3 -8 14 -8 22 0 30 6 6 11 15 11 21 0
6 -5 5 -12 -2 -7 -7 -17 -12 -22 -12 -6 0 -3 5 6 11 10 5 15 16 12 24 -4 9 0
15 7 15 11 0 11 2 -1 10 -11 7 -17 5 -22 -8 -6 -15 -7 -15 -7 -1 -1 9 7 23 16
30 11 10 14 10 9 2 -4 -7 -2 -14 3 -14 6 -1 15 -2 20 -3 6 0 16 -7 22 -13 11
-11 10 -13 0 -13 -7 0 -10 -4 -6 -9 3 -5 1 -12 -5 -16 -15 -9 -3 -24 18 -20 9
2 20 4 23 4 3 1 6 7 6 14 0 6 4 20 8 30 4 10 3 17 -4 17 -6 0 -10 -3 -9 -7 4
-16 -14 -53 -23 -48 -5 4 -5 14 1 26 6 10 8 19 4 19 -3 0 -1 7 6 15 7 8 16 13
20 10 5 -3 6 5 2 17 -4 16 -2 19 8 13 9 -5 11 -4 6 4 -8 13 -26 6 -26 -10 0
-10 -29 -45 -31 -37 0 2 -2 16 -4 31 -3 23 -1 26 9 17 10 -8 15 -7 19 4 4 11
1 13 -10 9 -12 -5 -14 -3 -8 8 8 12 6 12 -8 0 -9 -7 -17 -9 -17 -4 0 12 37 43
44 36 3 -4 6 -1 6 5 0 6 -9 14 -20 17 -11 4 -17 11 -14 17 4 6 10 6 17 -1 6
-6 16 -11 21 -11 6 0 1 6 -10 14 -11 8 -20 24 -19 35 2 26 15 40 15 16 0 -10
3 -16 6 -12 4 3 4 14 0 23 -5 13 -9 14 -21 4 -23 -19 -18 4 5 25 l20 18 -20
22 c-11 12 -20 27 -20 34 0 7 9 3 20 -10 10 -13 19 -18 20 -11 0 6 -4 12 -10
12 -5 0 -10 7 -10 16 0 11 -6 14 -21 9 -18 -6 -19 -5 -7 14 9 15 15 17 21 8 6
-9 7 -8 6 3 -3 29 1 41 12 34 7 -4 7 1 -1 16 -6 12 -18 19 -25 16 -9 -3 -12 0
-8 10 3 7 0 14 -7 14 -6 0 -9 4 -5 10 8 13 36 0 29 -14 -3 -6 3 -1 14 11 11
12 21 20 24 18 2 -2 5 6 5 18 2 19 0 19 -8 5 -9 -17 -49 -14 -49 4 0 5 5 6 10
3 6 -4 10 -3 9 2 -4 22 2 34 14 27 8 -5 8 -2 -2 9 -11 14 -11 20 0 34 10 11
10 14 2 9 -7 -4 -13 -3 -13 2 0 15 13 22 24 12 7 -5 17 -5 26 1 12 8 11 9 -4
7 -10 -2 -21 3 -24 11 -3 8 0 11 7 7 6 -4 11 -2 11 3 0 16 -18 13 -28 -5 -5
-9 -12 -14 -17 -12 -4 1 -10 -7 -12 -20 -2 -16 1 -21 9 -16 7 4 8 3 4 -5 -4
-6 -12 -9 -17 -6 -5 4 -9 1 -9 -4 0 -6 7 -11 17 -11 31 0 -1 -16 -40 -19 -5
-1 -5 -6 -1 -12 3 -6 9 -7 13 -3 3 5 13 10 21 12 10 1 9 -2 -4 -13 -32 -24
-42 -17 -37 24 2 7 -2 10 -8 6 -17 -10 -13 1 6 16 10 8 14 9 10 2 -4 -6 -2
-15 4 -18 7 -5 9 1 7 16 -2 13 -8 23 -14 22 -5 -1 -11 8 -11 20 -1 12 1 17 5
12 11 -16 25 -12 52 13 13 12 28 22 33 22 6 0 2 9 -8 20 -19 21 -7 28 13 8 9
-9 15 -9 24 1 7 7 9 12 3 11 -21 -5 -36 0 -30 10 4 6 -1 7 -12 3 -16 -6 -16
-4 2 16 l20 23 7 -24 c7 -23 7 -23 5 2 -1 14 -6 23 -11 22 -12 -5 -25 18 -19
35 3 7 10 13 15 13 6 0 7 -7 4 -16 -3 -8 -2 -13 2 -11 10 7 32 -19 24 -29 -4
-4 -1 -4 6 0 9 6 7 14 -8 37 -12 16 -26 29 -31 29 -6 0 -7 5 -4 11 5 7 13 5
24 -5 20 -19 31 -20 31 -5 0 5 -4 8 -9 5 -4 -3 -17 4 -27 16 -19 21 -19 21 4
9 13 -7 28 -10 35 -7 8 3 7 5 -2 5 -14 1 -40 29 -41 45 0 5 8 2 18 -7 10 -10
23 -17 28 -17 5 0 1 5 -9 11 -9 6 -15 15 -11 21 4 7 9 6 15 -3 4 -7 10 -11 13
-9 2 3 -2 14 -10 24 -11 16 -16 17 -29 6 -10 -8 -15 -9 -15 -2 0 16 37 34 45
22 3 -5 12 -10 18 -10 7 0 -1 11 -18 25 -16 13 -25 24 -18 25 6 0 15 -4 18
-10 3 -5 16 -10 28 -9 20 1 20 2 -3 8 -14 4 -25 13 -26 21 -2 33 -4 40 -12 40
-5 0 -9 -7 -9 -15 0 -8 4 -12 9 -9 4 3 8 0 8 -6 0 -7 -7 -9 -17 -6 -10 4 -14
4 -10 0 4 -4 1 -14 -6 -22 -8 -11 -8 -14 0 -9 6 4 14 3 17 -2 10 -15 -18 -19
-32 -5 -7 8 -8 14 -2 14 5 0 9 3 9 8 -1 4 0 10 1 15 1 4 4 12 5 17 1 6 4 12 5
15 1 3 4 10 5 15 1 6 4 12 5 15 1 3 3 8 4 13 1 4 7 17 14 30 7 12 10 22 6 22
-3 0 -1 7 6 15 7 8 9 15 4 15 -5 0 -1 7 10 15 10 7 15 18 11 24 -3 7 0 8 9 5
22 -9 20 -19 -6 -32 -21 -9 -20 -10 10 -7 23 3 32 -1 32 -11 0 -8 5 -14 11
-14 7 0 5 9 -5 25 -13 19 -14 29 -5 49 7 14 16 23 20 20 4 -2 13 5 19 16 6 11
15 18 20 15 6 -3 7 1 4 10 -6 14 -8 14 -21 -2 -14 -17 -14 -17 -9 0 3 11 2 16
-4 12 -6 -3 -10 -3 -11 2 0 4 -2 17 -4 28 -2 11 1 23 8 27 7 4 12 11 12 15 0
16 45 83 55 83 6 0 9 3 6 8 -2 4 2 15 9 25 10 14 18 15 38 8 28 -11 42 -4 27
14 -7 9 -2 21 19 44 16 17 25 34 20 37 -5 3 -9 0 -9 -6 0 -6 -5 -8 -12 -4 -7
5 -8 3 -3 -6 6 -9 4 -11 -5 -5 -9 6 -11 4 -5 -5 5 -8 4 -11 -2 -7 -6 4 -10 -1
-9 -11 0 -10 -5 -16 -13 -14 -12 3 -12 0 -1 -12 13 -17 3 -21 -19 -7 -10 7 -9
11 7 22 10 8 19 16 18 19 -1 10 65 100 75 100 6 0 8 -4 5 -9 -10 -15 18 -29
39 -20 15 5 16 8 4 8 -22 1 -53 37 -40 46 6 3 14 -1 17 -9 3 -9 14 -16 23 -16
14 1 14 2 -1 11 -21 12 -23 40 -6 57 17 17 33 15 18 -3 -9 -10 -9 -15 -1 -15
6 0 11 3 12 8 0 4 2 17 3 29 3 27 13 39 23 29 4 -4 1 -11 -6 -15 -8 -5 -9 -11
-3 -15 12 -7 25 21 16 35 -6 11 13 39 27 39 5 0 8 -5 6 -11 -1 -6 8 -15 21
-20 15 -6 21 -5 17 1 -3 6 -13 10 -21 10 -8 0 -13 4 -9 9 3 5 1 12 -5 16 -7 4
-6 11 2 19 7 8 35 39 62 70 49 56 49 56 75 40 14 -9 21 -11 14 -4 -14 15 -6
43 10 33 6 -4 7 -1 2 7 -6 10 -11 9 -22 -5 -7 -11 -13 -14 -13 -8 0 11 32 43
43 43 4 0 6 -5 4 -11 -1 -6 5 -14 13 -16 10 -3 11 -2 4 4 -16 11 -9 45 12 60
22 16 38 17 28 1 -4 -7 -3 -8 5 -4 9 6 9 11 0 22 -6 8 -8 14 -3 14 5 0 26 15
46 33 62 54 83 71 88 71 16 -2 39 10 34 17 -5 8 9 13 29 10 4 0 6 5 5 11 -2 8
5 12 16 10 10 -2 15 1 12 6 -5 9 73 58 87 54 4 -1 7 2 7 8 0 6 3 9 8 8 4 -1
20 6 35 16 15 10 30 16 33 13 3 -3 14 3 24 13 11 11 28 17 40 15 11 -2 18 0
15 5 -6 10 54 32 68 23 6 -3 7 -1 3 5 -4 8 1 13 13 14 12 0 27 1 34 2 6 1 15
4 18 9 5 7 29 14 69 22 8 1 22 5 30 8 19 8 104 27 147 34 18 2 45 8 60 13 22
7 17 8 -25 7 -30 -1 -55 -3 -56 -4z m-636 -53 c0 -4 -7 -11 -16 -14 -13 -5
-14 -4 -6 7 7 8 8 18 4 22 -4 5 -1 5 6 1 6 -4 12 -11 12 -16z m-136 -46 c20
-19 21 -31 1 -14 -18 15 -40 3 -26 -14 8 -10 5 -13 -16 -11 -35 1 -40 19 -11
39 28 20 33 20 52 0z m-117 -37 c0 -8 -6 -14 -14 -14 -14 0 -17 10 -6 20 10
11 20 8 20 -6z m-37 -1 c0 -2 -7 -6 -15 -10 -8 -3 -15 -1 -15 4 0 6 7 10 15
10 8 0 15 -2 15 -4z m-8 -51 c27 5 11 -19 -23 -34 -24 -11 -33 -11 -39 -1 -4
6 -11 12 -16 12 -5 0 -8 5 -6 12 2 7 -1 6 -10 -2 -11 -11 -9 -16 11 -31 17
-13 19 -18 7 -18 -9 0 -16 4 -16 9 0 5 -4 7 -10 3 -5 -3 -7 -13 -4 -23 4 -12
3 -14 -3 -4 -8 10 -12 10 -23 -3 -7 -9 -23 -21 -34 -26 -13 -6 -11 -2 7 11 15
12 27 26 27 32 0 6 -9 3 -20 -7 -12 -11 -20 -13 -20 -6 0 7 -5 9 -11 6 -6 -4
-8 -9 -5 -12 3 -3 1 -14 -5 -25 -10 -18 -12 -19 -29 -3 -10 9 -21 12 -24 7 -3
-6 1 -13 10 -16 8 -3 12 -11 9 -17 -4 -6 -13 -8 -21 -5 -8 3 -17 -1 -20 -8 -3
-8 -12 -17 -20 -20 -18 -7 -18 -1 2 18 8 9 11 16 5 16 -6 0 -8 8 -5 18 5 14 4
14 -4 2 -6 -8 -9 -17 -6 -21 2 -4 -3 -13 -12 -20 -13 -10 -17 -10 -25 2 -5 8
-9 12 -10 9 0 -3 -2 -13 -4 -23 -3 -14 1 -16 17 -11 18 5 19 4 7 -9 -9 -10
-18 -12 -26 -6 -7 7 -14 6 -18 -1 -3 -5 -1 -10 5 -10 6 0 8 -5 4 -11 -4 -8 -9
-7 -15 2 -7 11 -9 11 -9 -1 0 -12 -2 -12 -9 -2 -4 8 -11 13 -15 13 -19 -3 -23
1 -22 19 2 30 27 42 44 22 7 -9 11 -12 8 -6 -7 15 14 32 36 29 27 -5 43 21 21
33 -13 8 -7 10 25 7 43 -3 50 3 30 23 -9 9 -7 13 8 18 10 4 29 16 40 26 21 19
21 19 27 -2 5 -18 9 -20 27 -10 12 6 18 16 14 23 -4 7 -4 9 1 5 4 -4 15 3 25
15 14 17 20 19 33 9 11 -10 17 -9 27 3 11 13 15 14 29 1 9 -7 24 -12 33 -11z
m-452 -219 c0 -2 -8 -10 -17 -17 -16 -13 -17 -12 -4 4 13 16 21 21 21 13z
m-175 -132 c-9 -9 -19 -13 -23 -10 -3 4 0 11 8 16 24 15 33 11 15 -6z m-285
-280 c0 -8 -4 -12 -10 -9 -5 3 -10 10 -10 16 0 5 5 9 10 9 6 0 10 -7 10 -16z
m430 -425 c0 -5 -3 -8 -7 -8 -5 1 -17 1 -28 0 -17 -1 -18 -3 -5 -11 11 -7 11
-10 2 -10 -8 0 -10 -5 -6 -12 5 -9 2 -9 -9 1 -23 18 -21 26 8 39 14 6 25 17
24 24 0 10 -2 10 -6 1 -2 -7 -9 -13 -15 -13 -7 0 -7 5 1 13 6 8 10 16 8 18 -1
3 6 -4 16 -14 9 -11 17 -23 17 -28z m-155 -320 c1 -11 -2 -22 -7 -25 -5 -3 -1
-12 9 -20 17 -13 17 -14 -1 -7 -16 5 -18 3 -13 -11 4 -10 1 -19 -8 -22 -8 -4
-15 -10 -15 -16 0 -5 6 -6 13 -2 6 4 4 -2 -5 -13 -20 -21 -24 -38 -8 -28 6 4
7 -1 3 -11 -5 -13 -3 -15 8 -10 8 4 3 -2 -10 -13 -15 -13 -18 -21 -10 -22 11
0 11 -2 2 -6 -16 -6 -17 -24 -2 -20 22 4 19 -20 -4 -36 -15 -10 -29 -12 -38
-6 -10 6 -10 9 -1 9 6 0 12 5 12 11 0 5 -5 7 -12 3 -7 -4 -8 -3 -4 4 5 9 13 9
26 2 28 -15 32 -12 13 8 -10 11 -22 17 -28 14 -5 -3 -2 4 8 15 9 11 17 23 17
28 0 4 -8 1 -17 -6 -17 -13 -17 -12 -3 6 8 11 21 31 28 44 13 22 12 23 -3 17
-14 -5 -16 -4 -7 7 7 8 8 18 4 22 -4 5 -1 5 6 1 9 -6 11 -1 8 18 -4 20 -1 24
12 19 15 -6 15 -4 4 9 -9 12 -10 18 -2 23 6 4 9 13 6 20 -5 14 4 28 13 20 2
-3 5 -15 6 -26z m-114 -416 c-12 -20 -14 -14 -5 12 4 9 9 14 11 11 3 -2 0 -13
-6 -23z m89 -16 c0 -4 -9 -3 -19 2 -21 12 -52 -11 -31 -24 6 -3 8 -11 5 -16
-4 -5 -3 -14 1 -20 4 -8 9 -7 15 2 4 7 11 10 15 7 9 -9 -34 -78 -49 -78 -7 0
-4 -5 5 -11 11 -6 15 -16 11 -27 -3 -9 -2 -14 2 -9 5 4 17 0 27 -10 18 -16 18
-17 -3 -39 -12 -13 -28 -20 -38 -17 -9 3 -12 1 -6 -4 26 -21 3 -51 -26 -33
-11 7 -10 12 4 28 25 27 21 38 -5 16 l-23 -19 21 25 c22 26 29 63 10 57 -6 -2
-10 -11 -8 -20 1 -8 -2 -18 -7 -21 -5 -3 -8 7 -7 23 0 16 4 27 8 25 5 -3 8 1
8 10 0 8 -3 16 -7 19 -5 2 -3 2 4 1 16 -4 27 13 11 18 -7 3 -8 9 -2 19 5 8 10
31 10 52 2 33 0 36 -15 25 -10 -8 -9 -4 4 12 11 14 24 28 28 31 10 7 57 -12
57 -24z m-92 -62 c0 -14 -4 -27 -8 -30 -3 -2 -5 6 -4 18 1 12 3 25 3 30 2 18
9 5 9 -18z m67 -221 c0 -10 -3 -24 -8 -31 -5 -7 -2 -15 9 -21 24 -13 0 -27
-49 -27 -36 0 -37 1 -18 14 12 7 21 18 21 23 0 6 -6 6 -14 -1 -11 -9 -16 -9
-22 0 -4 7 -3 9 4 5 6 -3 13 -2 16 3 4 5 1 11 -6 14 -7 2 -5 3 4 2 20 -3 51
28 41 40 -5 4 -1 6 7 3 8 -3 15 -13 15 -24z m-58 -100 c-3 -3 -12 -4 -19 -1
-8 3 -5 6 6 6 11 1 17 -2 13 -5z m36 -9 c7 -18 -6 -27 -27 -19 -12 5 -13 9 -3
20 16 17 24 17 30 -1z m-33 -29 c0 -3 -4 -8 -10 -11 -5 -3 -10 -1 -10 4 0 6 5
11 10 11 6 0 10 -2 10 -4z m50 -6 c0 -5 -5 -10 -11 -10 -5 0 -7 5 -4 10 3 6 8
10 11 10 2 0 4 -4 4 -10z m-55 -68 c-3 -3 -11 0 -18 7 -9 10 -8 11 6 5 10 -3
15 -9 12 -12z m-8 -54 c-3 -8 -6 -5 -6 6 -1 11 2 17 5 13 3 -3 4 -12 1 -19z
m43 -98 c0 -5 -8 -10 -17 -10 -15 0 -16 2 -3 10 19 12 20 12 20 0z m80 -23 c0
-8 -6 -14 -14 -14 -8 0 -12 6 -9 14 3 7 9 13 14 13 5 0 9 -6 9 -13z m-75 -25
c-3 -3 -11 0 -18 7 -9 10 -8 11 6 5 10 -3 15 -9 12 -12z m35 -6 c0 -3 -4 -8
-10 -11 -5 -3 -10 -1 -10 4 0 6 5 11 10 11 6 0 10 -2 10 -4z m-25 -25 c3 -5 0
-13 -6 -17 -7 -4 -9 -3 -5 4 3 5 0 13 -6 15 -9 4 -10 6 -1 6 6 1 14 -3 18 -8z
m135 -133 c0 -12 -6 -9 -26 13 -19 22 -19 22 4 8 12 -8 22 -17 22 -21z m-116
6 c3 -8 2 -12 -4 -9 -6 3 -10 10 -10 16 0 14 7 11 14 -7z m20 -33 c4 -5 -3 -7
-14 -4 -23 6 -26 13 -6 13 8 0 17 -4 20 -9z m92 -36 c-3 -8 2 -19 10 -26 8 -6
12 -14 10 -17 -3 -2 0 -14 6 -25 9 -17 8 -19 -6 -14 -8 3 -18 2 -21 -3 -4 -6
-1 -10 4 -10 6 0 20 -9 31 -20 11 -11 16 -20 10 -20 -5 0 -10 -4 -10 -10 0 -5
3 -9 8 -9 20 3 23 -2 11 -18 -13 -15 -12 -15 9 -4 34 18 49 8 19 -12 -23 -15
-27 -15 -41 -1 -9 8 -16 11 -16 6 0 -6 -8 -13 -17 -16 -13 -5 -10 1 7 20 22
24 23 26 5 20 -11 -3 -27 -1 -34 4 -12 7 -11 12 10 30 18 16 19 20 6 16 -11
-3 -16 -2 -12 4 3 6 1 10 -4 10 -6 0 -11 -8 -12 -17 0 -13 -2 -14 -6 -4 -3 8
2 20 13 28 10 7 15 13 11 13 -4 0 -2 11 3 24 5 13 6 27 2 30 -11 12 -13 48 -1
41 6 -4 8 -13 5 -20z m-66 -49 c0 -6 -7 -1 -15 10 -8 10 -15 23 -15 28 0 6 7
1 15 -10 8 -10 15 -23 15 -28z m16 -45 c1 -6 0 -7 -2 -2 -3 6 -12 7 -20 4 -8
-3 -14 -1 -14 5 0 14 33 8 36 -7z m4 -25 c0 -3 -4 -8 -10 -11 -5 -3 -10 -1
-10 4 0 6 5 11 10 11 6 0 10 -2 10 -4z m35 -55 c3 -5 2 -12 -3 -15 -5 -3 -9 1
-9 9 0 17 3 19 12 6z m109 -37 c5 -14 4 -15 -9 -4 -17 14 -19 20 -6 20 5 0 12
-7 15 -16z m-84 -24 c0 -6 -5 -10 -12 -10 -6 0 -8 3 -5 7 4 3 -1 12 -11 20
-15 13 -15 13 6 3 12 -6 22 -15 22 -20z m20 -30 c0 -5 -4 -10 -10 -10 -5 0
-10 5 -10 10 0 6 5 10 10 10 6 0 10 -4 10 -10z m19 -62 c1 -5 -3 -8 -7 -8 -4
0 -8 12 -9 28 -1 23 -1 24 7 7 5 -11 9 -23 9 -27z m3960 -50 c-5 -10 -15 -18
-21 -18 -7 0 -7 4 1 14 9 11 9 16 0 21 -8 6 -8 10 2 16 18 11 30 -10 18 -33z
m-3812 -23 c-6 -6 -17 -12 -24 -12 -7 0 -11 3 -8 5 3 3 0 11 -6 19 -14 17 3
17 20 1 7 -7 12 -8 11 -3 -4 21 1 29 9 16 6 -9 5 -19 -2 -26z m-77 -54 c7 -15
7 -22 -2 -27 -7 -4 -10 -4 -6 1 4 4 3 16 -3 26 -5 11 -7 19 -5 19 3 0 10 -9
16 -19z m130 -22 c0 -4 -6 -9 -13 -12 -8 -3 -14 0 -14 7 0 7 6 13 14 13 7 0
13 -4 13 -8z m-105 -9 c-3 -5 2 -11 12 -11 17 -1 17 -2 0 -6 -9 -2 -14 -9 -11
-15 4 -6 2 -8 -4 -5 -5 4 -9 15 -7 25 5 23 4 22 11 22 3 0 2 -4 -1 -10z m4077
-37 c-1 -4 7 -16 15 -25 15 -17 15 -20 -1 -37 -10 -11 -15 -24 -12 -29 9 -14
-19 -33 -38 -26 -13 5 -14 9 -5 20 6 8 8 14 3 14 -4 0 -3 5 3 11 6 6 9 18 6
25 -3 8 -1 14 5 14 6 0 9 8 7 18 -3 19 4 36 12 28 2 -2 5 -8 5 -13z m-4013
-48 c0 -5 -4 -3 -9 5 -5 8 -9 22 -9 30 0 16 17 -16 18 -35z m-23 -9 c1 -7 -4
-13 -12 -13 -9 0 -11 4 -4 12 5 7 8 15 5 18 -3 4 -2 5 2 2 4 -3 8 -11 9 -19z
m63 -74 c7 -14 6 -18 -9 -18 -14 0 -16 4 -9 12 7 8 6 14 -3 17 -9 4 -10 6 -1
6 7 1 17 -7 22 -17z m3960 -8 c3 -3 -5 -14 -18 -25 -13 -10 -19 -19 -15 -19 5
0 0 -7 -10 -15 -11 -8 -14 -15 -7 -15 7 0 9 -5 6 -11 -9 -13 -15 -7 -20 20 -2
13 2 24 10 27 7 3 12 16 11 29 -3 18 1 22 17 19 11 -2 22 -6 26 -10z m-3899
-25 c0 -6 -4 -7 -10 -4 -5 3 -10 11 -10 16 0 6 5 7 10 4 6 -3 10 -11 10 -16z
m0 -59 c0 -5 -2 -10 -4 -10 -3 0 -8 5 -11 10 -3 6 -1 10 4 10 6 0 11 -4 11
-10z m21 -37 c13 -16 12 -17 -3 -4 -10 7 -18 15 -18 17 0 8 8 3 21 -13z m114
-103 c3 -5 1 -10 -4 -10 -6 0 -11 5 -11 10 0 6 2 10 4 10 3 0 8 -4 11 -10z
m65 -59 c0 -6 -4 -12 -8 -15 -5 -3 -9 1 -9 9 0 8 4 15 9 15 4 0 8 -4 8 -9z
m2957 2 c-4 -3 0 -14 9 -24 24 -26 8 -44 -22 -24 -13 9 -24 11 -24 5 0 -6 7
-13 15 -16 14 -6 13 -8 -2 -20 -27 -20 -34 -17 -29 12 6 33 33 74 48 74 6 0 8
-3 5 -7z m-82 -77 c-21 -31 -50 -45 -35 -16 8 16 36 38 48 40 1 0 -5 -11 -13
-24z m-135 -132 c0 -8 -5 -14 -11 -14 -5 0 -8 4 -4 9 3 5 1 12 -4 15 -5 4 -8
-5 -7 -18 2 -19 -1 -23 -13 -18 -14 5 -14 4 -1 -13 13 -17 13 -18 0 -10 -8 5
-21 10 -27 11 -12 2 -14 0 -17 -28 0 -7 -12 -14 -25 -14 -14 -1 -37 -16 -54
-35 l-29 -34 22 33 c21 32 21 32 1 29 -23 -4 -41 -17 -23 -17 9 0 9 -5 0 -20
-9 -14 -19 -18 -33 -13 -18 5 -19 4 -5 -13 8 -10 0 -6 -19 9 -28 23 -36 26
-49 15 -14 -12 -14 -10 -2 12 8 16 15 20 18 12 3 -10 7 -10 18 -1 11 9 15 8
20 -5 3 -9 10 -13 15 -10 5 3 9 0 9 -7 0 -10 3 -10 12 -1 8 8 8 15 0 25 -15
18 6 42 23 27 9 -7 17 -5 26 6 8 10 13 19 12 21 -2 1 0 3 5 4 4 0 12 10 19 22
12 23 31 29 49 15 6 -5 18 0 28 11 19 21 46 18 46 -5z m-110 -99 c0 -2 -10 -9
-22 -15 -22 -11 -22 -10 -4 4 21 17 26 19 26 11z m-372 -92 c-4 -13 25 -51 36
-49 6 2 8 1 3 -1 -4 -3 -4 -10 0 -16 4 -7 -1 -6 -11 2 -12 11 -20 11 -28 3 -8
-8 -15 -9 -25 -1 -17 14 -17 -2 0 -21 6 -8 2 -6 -10 4 -16 13 -23 15 -23 6 0
-7 7 -18 16 -24 13 -10 13 -12 -5 -12 -11 0 -17 4 -15 8 3 4 1 8 -3 8 -12 0
-14 38 -2 45 5 4 6 11 3 17 -4 7 -2 8 5 4 6 -4 9 -12 6 -17 -4 -5 -1 -9 4 -9
6 0 11 5 11 12 0 6 6 4 13 -7 10 -12 16 -14 21 -7 4 7 1 12 -6 12 -10 0 -10 2
1 9 9 6 10 11 2 15 -14 9 -14 26 -1 26 6 0 9 -3 8 -7z m-105 -30 c-16 -6 -17
-24 -2 -20 6 1 13 -8 15 -20 4 -23 -10 -31 -21 -13 -4 6 -11 8 -16 4 -5 -3 -9
-2 -8 3 1 4 0 10 -1 13 -10 28 -6 37 19 37 14 0 20 -2 14 -4z m252 -3 c-3 -5
-12 -10 -18 -10 -7 0 -6 4 3 10 19 12 23 12 15 0z m-125 -44 c0 -3 -4 -8 -10
-11 -5 -3 -10 -1 -10 4 0 6 5 11 10 11 6 0 10 -2 10 -4z m-110 -31 c5 3 10 4
10 1 0 -3 -10 -11 -22 -17 -13 -6 -20 -8 -16 -4 4 5 2 15 -5 24 -10 14 -10 14
5 3 9 -8 22 -11 28 -7z"/>
<path d="M1954 5434 c-18 -14 -18 -15 4 -4 12 6 22 13 22 15 0 8 -5 6 -26 -11z"/>
<path d="M1774 5348 c-10 -13 -15 -20 -10 -16 5 4 15 3 23 -4 22 -18 42 7 22
27 -14 14 -17 13 -35 -7z m30 -9 c-3 -5 -10 -7 -15 -3 -5 3 -7 10 -3 15 3 5
10 7 15 3 5 -3 7 -10 3 -15z"/>
<path d="M1704 5324 c-17 -18 -28 -34 -23 -34 4 0 10 4 14 10 3 5 12 7 19 4 8
-3 17 -1 21 5 3 6 1 11 -5 11 -8 0 -8 6 0 20 15 27 10 25 -26 -16z"/>
<path d="M1621 5299 c-7 -12 -19 -18 -27 -15 -22 8 -17 2 17 -23 18 -13 29
-19 25 -13 -3 6 0 13 6 15 9 4 9 6 -1 6 -11 1 -11 4 3 14 15 11 16 15 4 25
-11 8 -17 7 -27 -9z m16 -10 c-9 -6 -14 -15 -11 -21 4 -7 2 -8 -5 -4 -14 9 3
36 23 36 6 0 3 -5 -7 -11z"/>
<path d="M1570 5238 c0 -7 10 -14 21 -15 12 -1 20 -1 18 0 -2 2 -12 9 -21 16
-15 11 -18 11 -18 -1z"/>
<path d="M1479 5205 c-1 -3 -2 -9 -3 -14 -2 -18 -16 -24 -30 -12 -12 10 -15 9
-13 -7 2 -32 48 -13 53 23 2 13 -4 22 -7 10z"/>
<path d="M1119 3553 c-13 -16 -12 -17 4 -4 9 7 17 15 17 17 0 8 -8 3 -21 -13z"/>
<path d="M1116 3476 c3 -8 0 -17 -5 -21 -13 -8 -5 -25 12 -25 7 0 6 4 -3 10
-13 8 -13 10 2 10 9 0 20 5 24 12 4 7 3 8 -4 4 -7 -4 -12 -1 -12 8 0 9 -4 16
-10 16 -5 0 -7 -6 -4 -14z"/>
<path d="M1100 3400 c0 -13 18 -22 24 -11 3 5 -1 11 -9 15 -8 3 -15 1 -15 -4z"/>
<path d="M1119 3361 c10 -6 10 -10 2 -16 -9 -5 -9 -10 0 -21 6 -7 15 -11 21
-8 5 3 4 12 -4 21 -11 14 -10 15 11 8 20 -6 22 -5 11 7 -8 8 -23 15 -34 16
-15 1 -17 -1 -7 -7z"/>
<path d="M1095 3291 c-3 -5 -1 -12 5 -16 5 -3 10 1 10 9 0 18 -6 21 -15 7z"/>
<path d="M1121 3246 c-9 -10 -9 -16 -1 -21 8 -5 6 -11 -6 -19 -15 -12 -14 -13
7 -11 13 1 23 5 22 8 -5 11 -5 21 -4 40 3 21 -3 22 -18 3z"/>
<path d="M1280 2495 c-18 -21 -3 -32 16 -13 10 9 12 18 6 22 -5 3 -15 -1 -22
-9z"/>
<path d="M5493 2083 c4 -6 3 -14 -2 -18 -6 -3 -8 -12 -4 -20 3 -8 1 -15 -4
-15 -5 0 -9 -10 -10 -22 0 -13 1 -17 4 -10 3 6 10 9 15 6 7 -4 8 -2 4 5 -4 6
-1 23 8 36 14 21 14 24 -1 37 -10 8 -14 8 -10 1z"/>
<path d="M5456 1953 c-6 -14 -5 -15 5 -6 7 7 10 15 7 18 -3 3 -9 -2 -12 -12z"/>
<path d="M4726 1661 c-4 -5 -2 -12 4 -16 5 -3 10 -3 10 2 0 4 5 1 10 -7 5 -8
10 -10 10 -4 0 17 -27 37 -34 25z"/>
<path d="M4703 1615 c0 -8 4 -12 9 -9 5 3 6 10 3 15 -9 13 -12 11 -12 -6z"/>
<path d="M4480 1465 c-10 -12 -16 -13 -28 -3 -13 11 -14 11 -7 -1 6 -11 4 -13
-8 -8 -11 4 -20 -1 -27 -14 -6 -11 -14 -17 -18 -15 -5 3 -8 -5 -9 -17 0 -12 1
-17 4 -10 2 6 15 9 29 7 17 -3 23 -1 19 6 -8 12 13 42 25 35 4 -2 15 4 25 15
10 11 16 20 13 20 -3 0 -11 -7 -18 -15z m-64 -43 c-17 -16 -18 -16 -5 5 7 12
15 20 18 17 3 -2 -3 -12 -13 -22z"/>
<path d="M4270 1361 c0 -6 4 -13 10 -16 6 -3 7 1 4 9 -7 18 -14 21 -14 7z"/>
<path d="M3924 1222 c23 -26 23 -26 23 -7 0 8 -3 13 -5 10 -3 -3 -12 1 -21 7
-10 8 -9 4 3 -10z"/>
<path d="M1835 5529 c-4 -6 -5 -12 -2 -15 2 -3 7 2 10 11 7 17 1 20 -8 4z"/>
<path d="M2257 5520 c-7 -25 29 -48 47 -30 8 8 6 9 -8 4 -13 -5 -17 -4 -12 4
4 8 2 10 -8 6 -11 -4 -13 0 -9 15 3 12 3 21 0 21 -2 0 -7 -9 -10 -20z"/>
<path d="M2333 5518 c0 -13 1 -17 4 -10 4 10 8 10 21 0 12 -9 11 -6 -2 10 -11
12 -20 22 -20 22 -1 0 -2 -10 -3 -22z"/>
<path d="M1866 5522 c-3 -5 1 -9 9 -9 8 0 12 4 9 9 -3 4 -7 8 -9 8 -2 0 -6 -4
-9 -8z"/>
<path d="M2000 5515 c-19 -22 -8 -25 13 -3 9 10 13 18 8 18 -5 0 -14 -7 -21
-15z"/>
<path d="M2213 5517 c-3 -6 -1 -7 5 -3 5 3 12 1 14 -6 3 -8 6 -7 10 3 7 17
-19 22 -29 6z"/>
<path d="M2173 5510 c2 -8 9 -15 16 -15 6 0 16 -7 21 -15 5 -8 12 -11 17 -6 7
7 -27 33 -36 27 -2 -1 -8 3 -13 11 -8 10 -9 10 -5 -2z"/>
<path d="M1790 5500 c0 -5 5 -10 11 -10 5 0 7 5 4 10 -3 6 -8 10 -11 10 -2 0
-4 -4 -4 -10z"/>
<path d="M1849 5484 c-22 -26 -21 -46 2 -34 24 13 25 22 2 13 -16 -6 -16 -4 1
15 11 12 17 22 14 22 -3 0 -12 -7 -19 -16z"/>
<path d="M1916 5482 c-3 -4 4 -9 15 -9 23 -2 25 3 4 10 -8 4 -16 3 -19 -1z"/>
<path d="M2247 5479 c7 -7 15 -10 18 -7 3 3 -2 9 -12 12 -14 6 -15 5 -6 -5z"/>
<path d="M2180 5465 c-7 -9 -8 -15 -2 -15 5 0 12 7 16 15 3 8 4 15 2 15 -2 0
-9 -7 -16 -15z"/>
<path d="M1699 5433 c-13 -16 -12 -17 4 -4 16 13 21 21 13 21 -2 0 -10 -8 -17
-17z"/>
<path d="M2035 5440 c-3 -5 -1 -10 4 -10 6 0 11 5 11 10 0 6 -2 10 -4 10 -3 0
-8 -4 -11 -10z"/>
<path d="M1757 5433 c-10 -9 -9 -23 1 -23 5 0 9 7 9 15 0 17 -1 18 -10 8z"/>
<path d="M1659 5393 c-13 -16 -12 -17 4 -4 9 7 17 15 17 17 0 8 -8 3 -21 -13z"/>
<path d="M1575 5380 c-3 -5 -1 -10 4 -10 6 0 11 5 11 10 0 6 -2 10 -4 10 -3 0
-8 -4 -11 -10z"/>
<path d="M1675 5380 c-4 -6 1 -7 11 -3 13 5 15 3 9 -7 -5 -9 -4 -11 4 -6 6 4
9 12 6 17 -8 12 -22 12 -30 -1z"/>
<path d="M1890 5375 c-7 -9 -11 -17 -9 -20 3 -2 10 5 17 15 14 24 10 26 -8 5z"/>
<path d="M1657 5359 c7 -7 15 -10 18 -7 3 3 -2 9 -12 12 -14 6 -15 5 -6 -5z"/>
<path d="M2386 5362 c-3 -5 1 -9 9 -9 8 0 12 4 9 9 -3 4 -7 8 -9 8 -2 0 -6 -4
-9 -8z"/>
<path d="M1588 5333 c7 -3 16 -2 19 1 4 3 -2 6 -13 5 -11 0 -14 -3 -6 -6z"/>
<path d="M1536 5314 c-3 -8 0 -16 6 -20 7 -4 8 -3 4 4 -4 7 -1 12 8 12 9 0 16
4 16 8 0 14 -29 10 -34 -4z"/>
<path d="M2250 5299 c0 -5 5 -7 10 -4 6 3 10 8 10 11 0 2 -4 4 -10 4 -5 0 -10
-5 -10 -11z"/>
<path d="M1437 5293 c-10 -9 -9 -23 1 -23 5 0 9 7 9 15 0 17 -1 18 -10 8z"/>
<path d="M2185 5260 c-3 -6 1 -7 9 -4 18 7 21 14 7 14 -6 0 -13 -4 -16 -10z"/>
<path d="M1370 5241 c0 -6 4 -13 10 -16 6 -3 7 1 4 9 -7 18 -14 21 -14 7z"/>
<path d="M1405 5240 c-3 -6 1 -7 9 -4 18 7 21 14 7 14 -6 0 -13 -4 -16 -10z"/>
<path d="M1335 5220 c-3 -5 -1 -10 4 -10 6 0 11 5 11 10 0 6 -2 10 -4 10 -3 0
-8 -4 -11 -10z"/>
<path d="M2051 5171 c-8 -5 -9 -11 -3 -15 5 -3 12 1 16 9 6 17 6 18 -13 6z"/>
<path d="M2010 5160 c0 -5 5 -10 10 -10 6 0 10 5 10 10 0 6 -4 10 -10 10 -5 0
-10 -4 -10 -10z"/>
<path d="M1214 5125 c0 -13 3 -22 7 -19 8 4 6 30 -2 38 -3 3 -5 -5 -5 -19z"/>
<path d="M1273 5131 c0 -11 4 -18 8 -15 4 2 9 -2 12 -8 2 -7 7 -11 10 -8 3 3
-3 15 -13 28 -17 21 -19 21 -17 3z"/>
<path d="M1986 5142 c-3 -5 1 -9 9 -9 8 0 12 4 9 9 -3 4 -7 8 -9 8 -2 0 -6 -4
-9 -8z"/>
<path d="M1955 5121 c-6 -11 13 -26 22 -17 4 3 1 6 -6 6 -7 0 -9 5 -6 10 3 6
4 10 1 10 -3 0 -7 -4 -11 -9z"/>
<path d="M1385 5110 c-3 -6 1 -7 9 -4 18 7 21 14 7 14 -6 0 -13 -4 -16 -10z"/>
<path d="M1257 5091 c24 -23 33 -26 33 -13 0 5 -12 14 -27 21 l-28 13 22 -21z"/>
<path d="M1179 5073 c-13 -16 -12 -17 4 -4 9 7 17 15 17 17 0 8 -8 3 -21 -13z"/>
<path d="M1976 5073 c-6 -14 -5 -15 5 -6 7 7 10 15 7 18 -3 3 -9 -2 -12 -12z"/>
<path d="M1911 5060 c-9 -5 -4 -7 13 -7 29 0 32 2 13 10 -8 3 -20 2 -26 -3z"/>
<path d="M1133 5025 c0 -8 4 -12 9 -9 5 3 6 10 3 15 -9 13 -12 11 -12 -6z"/>
<path d="M1148 5008 c-10 -10 -14 -18 -9 -18 10 0 36 29 30 34 -2 1 -12 -6
-21 -16z"/>
<path d="M1224 4988 l-19 -23 23 19 c21 18 27 26 19 26 -2 0 -12 -10 -23 -22z"/>
<path d="M1082 4966 c15 -29 15 -29 22 -11 4 11 2 14 -6 9 -7 -5 -9 -2 -6 8 4
8 0 15 -7 15 -11 0 -11 -5 -3 -21z"/>
<path d="M1815 4960 c-3 -6 1 -7 9 -4 18 7 21 14 7 14 -6 0 -13 -4 -16 -10z"/>
<path d="M1890 4960 c0 -5 5 -10 11 -10 5 0 7 5 4 10 -3 6 -8 10 -11 10 -2 0
-4 -4 -4 -10z"/>
<path d="M1774 4945 c-10 -8 -14 -15 -8 -15 6 0 17 7 24 15 16 19 9 19 -16 0z"/>
<path d="M1768 4917 c-32 -12 -40 -28 -26 -48 8 -11 9 -10 4 3 -4 13 3 22 24
33 17 9 30 18 30 20 0 3 -1 5 -2 4 -2 -1 -15 -6 -30 -12z"/>
<path d="M1875 4910 c-4 -6 -11 -7 -17 -4 -7 4 -8 2 -4 -5 6 -9 11 -9 22 0 14
11 18 19 10 19 -3 0 -8 -5 -11 -10z"/>
<path d="M935 4880 c3 -5 8 -10 11 -10 2 0 4 5 4 10 0 6 -5 10 -11 10 -5 0 -7
-4 -4 -10z"/>
<path d="M965 4859 c-4 -6 -5 -12 -2 -15 2 -3 7 2 10 11 7 17 1 20 -8 4z"/>
<path d="M1715 4860 c3 -5 8 -10 11 -10 2 0 4 5 4 10 0 6 -5 10 -11 10 -5 0
-7 -4 -4 -10z"/>
<path d="M906 4822 c-3 -5 1 -9 9 -9 8 0 12 4 9 9 -3 4 -7 8 -9 8 -2 0 -6 -4
-9 -8z"/>
<path d="M1676 4817 c3 -10 9 -15 12 -12 3 3 0 11 -7 18 -10 9 -11 8 -5 -6z"/>
<path d="M1696 4793 c-6 -14 -5 -15 5 -6 7 7 10 15 7 18 -3 3 -9 -2 -12 -12z"/>
<path d="M865 4779 c-3 -4 2 -6 10 -5 21 3 28 13 10 13 -9 0 -18 -4 -20 -8z"/>
<path d="M918 4783 c7 -3 16 -2 19 1 4 3 -2 6 -13 5 -11 0 -14 -3 -6 -6z"/>
<path d="M1730 4779 c0 -5 5 -7 10 -4 6 3 10 8 10 11 0 2 -4 4 -10 4 -5 0 -10
-5 -10 -11z"/>
<path d="M1667 4767 c-4 -10 2 -13 18 -13 13 1 27 5 30 8 4 4 -1 5 -12 4 -10
-2 -21 1 -24 6 -3 5 -9 3 -12 -5z"/>
<path d="M884 4754 c-18 -14 -18 -15 4 -4 12 6 22 13 22 15 0 8 -5 6 -26 -11z"/>
<path d="M843 4738 c-12 -20 -12 -37 -1 -45 6 -3 8 -1 4 5 -3 5 0 13 6 15 10
4 9 6 -1 6 -11 1 -11 4 -1 16 7 8 10 15 7 15 -3 0 -9 -6 -14 -12z"/>
<path d="M1637 4736 c-4 -10 -13 -13 -24 -9 -15 5 -16 4 -5 -8 10 -11 15 -10
29 4 9 9 14 19 11 22 -3 3 -8 -1 -11 -9z"/>
<path d="M780 4706 c0 -2 8 -10 18 -17 15 -13 16 -12 3 4 -13 16 -21 21 -21
13z"/>
<path d="M1635 4701 c-3 -5 -2 -12 3 -15 5 -3 9 1 9 9 0 17 -3 19 -12 6z"/>
<path d="M1542 4666 c4 -5 1 -14 -7 -20 -12 -9 -8 -11 20 -12 20 -1 34 -1 33
0 -2 1 -14 10 -28 21 -14 11 -22 16 -18 11z"/>
<path d="M695 4631 c-3 -5 -2 -12 3 -15 5 -3 9 1 9 9 0 17 -3 19 -12 6z"/>
<path d="M754 4608 c9 -16 12 -16 14 -3 2 8 9 12 15 9 7 -4 9 -3 4 1 -4 5 -16
9 -26 10 -16 1 -17 -1 -7 -17z"/>
<path d="M1559 4613 c-5 -36 -5 -62 -1 -58 7 7 12 65 6 65 -2 0 -4 -3 -5 -7z"/>
<path d="M736 4583 c-6 -14 -5 -15 5 -6 7 7 10 15 7 18 -3 3 -9 -2 -12 -12z"/>
<path d="M1587 4579 c7 -7 15 -10 18 -7 3 3 -2 9 -12 12 -14 6 -15 5 -6 -5z"/>
<path d="M770 4558 c0 -12 -3 -18 -7 -15 -3 4 -12 -2 -20 -13 -8 -11 -19 -20
-25 -20 -6 0 -17 -8 -24 -17 -22 -29 -16 -34 11 -8 25 26 52 34 39 13 -4 -7 3
-4 15 7 27 24 50 62 30 50 -9 -6 -11 -3 -6 8 3 10 2 17 -3 17 -6 0 -10 -10
-10 -22z m0 -33 c-7 -9 -15 -13 -19 -10 -3 3 1 10 9 15 21 14 24 12 10 -5z"/>
<path d="M1514 4558 c-4 -6 -3 -8 4 -4 5 3 13 0 15 -6 3 -8 6 -6 6 5 1 19 -14
23 -25 5z"/>
<path d="M1555 4531 c-3 -5 -2 -12 3 -15 5 -3 9 1 9 9 0 17 -3 19 -12 6z"/>
<path d="M1443 4518 c-11 -19 -12 -38 -2 -38 5 0 9 5 9 11 0 5 6 7 13 3 9 -6
9 -5 0 8 -7 8 -10 18 -6 21 3 4 4 7 0 7 -3 0 -9 -6 -14 -12z"/>
<path d="M1520 4520 c-9 -6 -10 -10 -3 -10 6 0 15 5 18 10 8 12 4 12 -15 0z"/>
<path d="M670 4499 c0 -5 5 -7 10 -4 6 3 10 8 10 11 0 2 -4 4 -10 4 -5 0 -10
-5 -10 -11z"/>
<path d="M633 4485 c0 -8 4 -15 9 -15 4 0 8 4 8 9 0 6 -4 12 -8 15 -5 3 -9 -1
-9 -9z"/>
<path d="M1492 4491 c-11 -7 -11 -9 0 -14 9 -3 15 1 15 9 0 8 -1 14 -1 14 -1
0 -7 -4 -14 -9z"/>
<path d="M1407 4474 c-3 -6 -3 -14 1 -20 10 -14 35 -11 38 4 1 7 0 8 -3 2 -3
-7 -10 -5 -17 6 -7 9 -16 13 -19 8z"/>
<path d="M1516 4453 c-6 -14 -5 -15 5 -6 7 7 10 15 7 18 -3 3 -9 -2 -12 -12z"/>
<path d="M1456 4443 c-6 -14 -5 -15 5 -6 7 7 10 15 7 18 -3 3 -9 -2 -12 -12z"/>
<path d="M1384 4433 c-12 -28 0 -83 18 -83 5 0 4 9 -2 20 -13 25 -2 26 17 3
13 -16 13 -16 4 4 -6 12 -16 24 -23 26 -8 4 -7 6 4 6 9 1 20 6 24 12 4 8 0 9
-15 4 -16 -5 -20 -3 -15 9 8 22 -2 20 -12 -1z"/>
<path d="M1471 4427 c-13 -21 -12 -21 5 -5 10 10 16 20 13 22 -3 3 -11 -5 -18
-17z"/>
<path d="M657 4423 c-10 -9 -8 -43 2 -43 5 0 15 8 22 18 13 16 13 16 -5 2 -18
-14 -18 -13 -12 8 7 22 5 28 -7 15z"/>
<path d="M1434 4409 c-3 -6 -2 -15 3 -20 5 -5 9 -1 9 11 0 23 -2 24 -12 9z"/>
<path d="M616 4396 c6 -15 4 -17 -6 -11 -9 6 -11 4 -5 -4 5 -9 10 -10 18 -2 8
8 7 14 -2 24 -10 10 -11 8 -5 -7z"/>
<path d="M1359 4372 c11 -8 11 -10 0 -15 -10 -4 -8 -6 4 -6 21 -1 18 21 -4 27
-12 3 -12 2 0 -6z"/>
<path d="M566 4362 c-2 -4 9 -8 25 -8 33 -2 33 4 1 11 -12 2 -24 1 -26 -3z"/>
<path d="M515 4321 c-3 -5 -2 -12 3 -15 5 -3 9 1 9 9 0 17 -3 19 -12 6z"/>
<path d="M575 4315 c11 -34 10 -37 -4 -43 -8 -2 -11 0 -8 6 4 5 -1 16 -11 23
-14 11 -15 11 -5 -1 10 -11 9 -16 -5 -27 -16 -12 -16 -13 2 -6 14 5 17 3 11
-6 -6 -10 -3 -11 13 -2 30 16 32 23 15 51 -10 17 -12 19 -8 5z"/>
<path d="M1380 4280 c0 -4 7 -7 15 -6 23 3 26 12 5 13 -11 1 -20 -2 -20 -7z"/>
<path d="M1345 4253 c-3 -10 -1 -19 4 -21 6 -2 8 -9 5 -14 -4 -7 -2 -8 5 -4 9
6 9 11 0 22 -8 10 -8 14 0 14 6 0 11 5 11 10 0 16 -17 11 -25 -7z"/>
<path d="M520 4240 c-9 -6 -10 -10 -3 -10 6 0 15 5 18 10 8 12 4 12 -15 0z"/>
<path d="M1386 4238 c3 -5 10 -6 15 -3 13 9 11 12 -6 12 -8 0 -12 -4 -9 -9z"/>
<path d="M456 4207 c3 -10 9 -15 12 -12 3 3 0 11 -7 18 -10 9 -11 8 -5 -6z"/>
<path d="M1274 4195 c-11 -8 -15 -15 -10 -15 4 0 1 -11 -8 -24 -12 -19 -13
-27 -4 -32 8 -5 6 -10 -8 -16 -16 -7 -16 -8 4 -4 16 3 22 1 19 -8 -7 -17 10
-43 20 -32 4 5 2 11 -5 13 -6 3 -9 9 -6 14 4 6 10 6 18 0 8 -7 12 -4 13 12 2
14 -1 17 -6 9 -5 -9 -12 -9 -27 3 -17 14 -17 14 -1 9 14 -5 18 -2 15 11 -2 10
3 20 10 22 8 3 10 -2 6 -14 -5 -15 -4 -15 5 -3 8 11 7 18 -4 26 -8 6 -12 14
-8 17 3 4 12 2 20 -5 7 -6 15 -9 17 -7 2 2 -6 12 -19 21 -20 15 -25 15 -41 3z
m21 -5 c-3 -5 -12 -10 -18 -10 -7 0 -6 4 3 10 19 12 23 12 15 0z m-14 -33 c-6
-8 -9 -16 -6 -19 3 -2 -1 -5 -9 -5 -11 0 -12 4 -3 19 7 10 16 18 21 18 4 0 3
-6 -3 -13z"/>
<path d="M1366 4202 c-3 -5 1 -9 9 -9 8 0 12 4 9 9 -3 4 -7 8 -9 8 -2 0 -6 -4
-9 -8z"/>
<path d="M482 4164 c10 -10 20 -16 22 -13 3 3 -5 11 -17 18 -21 13 -21 12 -5
-5z"/>
<path d="M508 4173 c6 -2 18 -2 25 0 6 3 1 5 -13 5 -14 0 -19 -2 -12 -5z"/>
<path d="M387 4159 c7 -7 15 -10 18 -7 3 3 -2 9 -12 12 -14 6 -15 5 -6 -5z"/>
<path d="M1350 4161 c0 -6 4 -13 10 -16 6 -3 7 1 4 9 -7 18 -14 21 -14 7z"/>
<path d="M1375 4160 c3 -5 8 -10 11 -10 2 0 4 5 4 10 0 6 -5 10 -11 10 -5 0
-7 -4 -4 -10z"/>
<path d="M1325 4139 c-4 -6 -5 -12 -2 -15 2 -3 7 2 10 11 7 17 1 20 -8 4z"/>
<path d="M487 4109 c7 -7 15 -10 18 -7 3 3 -2 9 -12 12 -14 6 -15 5 -6 -5z"/>
<path d="M1390 4116 c0 -2 8 -10 18 -17 15 -13 16 -12 3 4 -13 16 -21 21 -21
13z"/>
<path d="M415 4100 c3 -5 8 -10 11 -10 2 0 4 5 4 10 0 6 -5 10 -11 10 -5 0 -7
-4 -4 -10z"/>
<path d="M446 4085 c-11 -8 -15 -15 -9 -15 6 0 16 7 23 15 16 19 11 19 -14 0z"/>
<path d="M480 4079 c0 -5 5 -7 10 -4 6 3 10 8 10 11 0 2 -4 4 -10 4 -5 0 -10
-5 -10 -11z"/>
<path d="M395 4060 c-3 -5 -1 -10 4 -10 6 0 11 5 11 10 0 6 -2 10 -4 10 -3 0
-8 -4 -11 -10z"/>
<path d="M1313 4035 c0 -8 4 -12 9 -9 5 3 6 10 3 15 -9 13 -12 11 -12 -6z"/>
<path d="M1340 4046 c0 -2 8 -10 18 -17 15 -13 16 -12 3 4 -13 16 -21 21 -21
13z"/>
<path d="M415 4029 c-4 -6 -5 -12 -2 -15 2 -3 7 2 10 11 7 17 1 20 -8 4z"/>
<path d="M345 4020 c-3 -6 1 -7 9 -4 18 7 21 14 7 14 -6 0 -13 -4 -16 -10z"/>
<path d="M1280 3980 c-9 -6 -10 -10 -3 -10 6 0 15 5 18 10 8 12 4 12 -15 0z"/>
<path d="M374 3938 c-3 -5 0 -7 8 -6 7 2 13 -5 13 -14 0 -9 4 -20 9 -25 5 -4
6 -3 3 4 -4 6 -1 14 5 17 11 5 11 7 0 12 -6 3 -10 9 -8 13 3 4 -2 8 -10 8 -8
0 -17 -4 -20 -9z"/>
<path d="M359 3853 c-12 -16 -12 -17 2 -6 9 7 20 9 24 5 5 -4 5 -1 1 6 -9 16
-11 15 -27 -5z"/>
<path d="M1286 3862 c-3 -5 1 -9 9 -9 8 0 12 4 9 9 -3 4 -7 8 -9 8 -2 0 -6 -4
-9 -8z"/>
<path d="M1269 3837 c6 -8 7 -18 3 -22 -4 -5 -1 -5 6 -1 10 6 10 11 1 22 -6 8
-14 14 -16 14 -3 0 0 -6 6 -13z"/>
<path d="M1316 3813 c-6 -14 -5 -15 5 -6 7 7 10 15 7 18 -3 3 -9 -2 -12 -12z"/>
<path d="M340 3800 c0 -5 5 -10 11 -10 5 0 7 5 4 10 -3 6 -8 10 -11 10 -2 0
-4 -4 -4 -10z"/>
<path d="M1238 3783 c7 -3 16 -2 19 1 4 3 -2 6 -13 5 -11 0 -14 -3 -6 -6z"/>
<path d="M336 3767 c3 -10 9 -15 12 -12 3 3 0 11 -7 18 -10 9 -11 8 -5 -6z"/>
<path d="M306 3762 c-3 -5 1 -9 9 -9 8 0 12 4 9 9 -3 4 -7 8 -9 8 -2 0 -6 -4
-9 -8z"/>
<path d="M1275 3749 c-4 -6 -5 -12 -2 -15 2 -3 7 2 10 11 7 17 1 20 -8 4z"/>
<path d="M1230 3726 c0 -2 7 -7 16 -10 8 -3 12 -2 9 4 -6 10 -25 14 -25 6z"/>
<path d="M326 3682 c-3 -5 1 -9 9 -9 8 0 15 4 15 9 0 4 -4 8 -9 8 -6 0 -12 -4
-15 -8z"/>
<path d="M1246 3682 c-3 -5 1 -9 9 -9 8 0 12 4 9 9 -3 4 -7 8 -9 8 -2 0 -6 -4
-9 -8z"/>
<path d="M1126 3668 c3 -5 10 -6 15 -3 13 9 11 12 -6 12 -8 0 -12 -4 -9 -9z"/>
<path d="M1214 3658 c-4 -7 -4 -10 1 -6 4 4 15 2 24 -5 14 -11 14 -10 2 6 -16
20 -18 21 -27 5z"/>
<path d="M1190 3640 c0 -5 5 -10 11 -10 5 0 7 5 4 10 -3 6 -8 10 -11 10 -2 0
-4 -4 -4 -10z"/>
<path d="M300 3636 c0 -2 7 -7 16 -10 8 -3 12 -2 9 4 -6 10 -25 14 -25 6z"/>
<path d="M1210 3610 c-9 -6 -10 -10 -3 -10 6 0 15 5 18 10 8 12 4 12 -15 0z"/>
<path d="M1253 3589 c-2 -23 3 -25 10 -4 4 8 3 16 -1 19 -4 3 -9 -4 -9 -15z"/>
<path d="M1190 3525 c-7 -9 -8 -15 -2 -15 5 0 12 7 16 15 3 8 4 15 2 15 -2 0
-9 -7 -16 -15z"/>
<path d="M1255 3529 c-4 -6 -5 -12 -2 -15 2 -3 7 2 10 11 7 17 1 20 -8 4z"/>
<path d="M291 3514 c0 -11 3 -14 6 -6 3 7 2 16 -1 19 -3 4 -6 -2 -5 -13z"/>
<path d="M1215 3521 c-3 -5 -2 -12 3 -15 5 -3 9 1 9 9 0 17 -3 19 -12 6z"/>
<path d="M1197 3489 c7 -7 15 -10 18 -7 3 3 -2 9 -12 12 -14 6 -15 5 -6 -5z"/>
<path d="M1247 3479 c7 -7 15 -10 18 -7 3 3 -2 9 -12 12 -14 6 -15 5 -6 -5z"/>
<path d="M1190 3460 c-12 -7 -10 -9 7 -7 12 0 19 5 17 9 -6 10 -6 10 -24 -2z"/>
<path d="M194 3440 c0 -13 4 -16 10 -10 7 7 7 13 0 20 -6 6 -10 3 -10 -10z"/>
<path d="M1188 3423 c7 -3 16 -2 19 1 4 3 -2 6 -13 5 -11 0 -14 -3 -6 -6z"/>
<path d="M1200 3359 c0 -5 5 -7 10 -4 6 3 10 8 10 11 0 2 -4 4 -10 4 -5 0 -10
-5 -10 -11z"/>
<path d="M1226 3342 c-3 -5 1 -9 9 -9 8 0 12 4 9 9 -3 4 -7 8 -9 8 -2 0 -6 -4
-9 -8z"/>
<path d="M1194 3329 c-3 -6 -2 -15 3 -20 5 -5 9 -1 9 11 0 23 -2 24 -12 9z"/>
<path d="M246 3282 c-3 -5 1 -9 9 -9 8 0 12 4 9 9 -3 4 -7 8 -9 8 -2 0 -6 -4
-9 -8z"/>
<path d="M1180 3256 c0 -2 7 -7 16 -10 8 -3 12 -2 9 4 -6 10 -25 14 -25 6z"/>
<path d="M215 3180 c3 -5 8 -10 11 -10 2 0 4 5 4 10 0 6 -5 10 -11 10 -5 0 -7
-4 -4 -10z"/>
<path d="M1190 3180 c-9 -6 -10 -10 -3 -10 6 0 15 5 18 10 8 12 4 12 -15 0z"/>
<path d="M1229 3177 c6 -8 7 -18 3 -22 -4 -5 -1 -5 6 -1 10 6 10 11 1 22 -6 8
-14 14 -16 14 -3 0 0 -6 6 -13z"/>
<path d="M217 3135 c-4 -8 -3 -16 1 -19 4 -3 9 4 9 15 2 23 -3 25 -10 4z"/>
<path d="M1226 3122 c-3 -5 1 -9 9 -9 8 0 12 4 9 9 -3 4 -7 8 -9 8 -2 0 -6 -4
-9 -8z"/>
<path d="M235 3091 c-3 -5 -2 -12 3 -15 5 -3 9 1 9 9 0 17 -3 19 -12 6z"/>
<path d="M1131 3077 c-6 -8 -8 -17 -4 -20 11 -12 19 -7 20 13 2 24 -1 25 -16
7z"/>
<path d="M1233 3025 c0 -8 4 -12 9 -9 5 3 6 10 3 15 -9 13 -12 11 -12 -6z"/>
<path d="M1185 3010 c-3 -5 -12 -7 -20 -3 -8 3 -15 -1 -15 -8 0 -7 3 -9 6 -6
13 13 43 -13 37 -31 -4 -11 1 -9 15 7 27 29 27 28 3 41 -13 6 -22 7 -26 0z
m29 -21 c-6 -11 -24 -2 -24 11 0 5 7 7 15 4 8 -4 12 -10 9 -15z"/>
<path d="M1275 2970 c-4 -6 -10 -8 -15 -5 -5 3 -12 0 -15 -6 -4 -5 -14 -8 -24
-4 -12 5 -13 4 -4 -6 8 -8 16 -9 25 -2 7 6 20 9 29 8 9 -2 16 4 16 11 0 17 -4
18 -12 4z"/>
<path d="M1100 2956 c0 -2 11 -11 24 -20 18 -11 27 -13 32 -4 4 6 3 8 -3 5 -6
-4 -13 0 -17 8 -5 13 -36 22 -36 11z"/>
<path d="M216 2942 c-3 -5 1 -9 9 -9 8 0 12 4 9 9 -3 4 -7 8 -9 8 -2 0 -6 -4
-9 -8z"/>
<path d="M1221 2920 c0 -8 6 -23 14 -34 13 -18 14 -18 12 2 0 11 -4 19 -8 16
-4 -2 -10 4 -12 13 -3 13 -5 13 -6 3z"/>
<path d="M1161 2896 c-7 -8 -8 -17 -3 -20 6 -3 12 3 15 14 6 24 4 25 -12 6z"/>
<path d="M1306 2878 c3 -5 10 -6 15 -3 13 9 11 12 -6 12 -8 0 -12 -4 -9 -9z"/>
<path d="M213 2845 c0 -8 4 -12 9 -9 5 3 6 10 3 15 -9 13 -12 11 -12 -6z"/>
<path d="M1266 2845 c-11 -8 -15 -15 -9 -15 6 0 16 7 23 15 16 19 11 19 -14 0z"/>
<path d="M1268 2793 c7 -3 16 -2 19 1 4 3 -2 6 -13 5 -11 0 -14 -3 -6 -6z"/>
<path d="M1223 2778 c-10 -14 -12 -37 -3 -39 3 -1 15 1 27 5 19 6 21 10 10 27
-14 22 -21 24 -34 7z m27 -18 c0 -4 -6 -10 -14 -13 -12 -5 -14 2 -7 31 2 7 21
-10 21 -18z"/>
<path d="M5513 2775 c0 -8 4 -12 9 -9 5 3 6 10 3 15 -9 13 -12 11 -12 -6z"/>
<path d="M1268 2733 c6 -2 18 -2 25 0 6 3 1 5 -13 5 -14 0 -19 -2 -12 -5z"/>
<path d="M1346 2722 c-3 -5 1 -9 9 -9 8 0 12 4 9 9 -3 4 -7 8 -9 8 -2 0 -6 -4
-9 -8z"/>
<path d="M1190 2699 c0 -5 5 -7 10 -4 6 3 10 8 10 11 0 2 -4 4 -10 4 -5 0 -10
-5 -10 -11z"/>
<path d="M5693 2691 c0 -11 5 -18 9 -15 4 3 5 11 1 19 -7 21 -12 19 -10 -4z"/>
<path d="M1315 2679 c-3 -4 2 -6 10 -5 21 3 28 13 10 13 -9 0 -18 -4 -20 -8z"/>
<path d="M1328 2648 c-7 -17 15 -19 29 -3 4 4 3 5 -4 2 -6 -4 -13 -2 -15 5 -3
8 -6 6 -10 -4z"/>
<path d="M5457 2653 c-10 -9 -9 -23 1 -23 5 0 9 7 9 15 0 17 -1 18 -10 8z"/>
<path d="M5590 2635 c0 -8 4 -15 8 -15 5 0 9 7 9 15 0 8 -4 15 -9 15 -4 0 -8
-7 -8 -15z"/>
<path d="M1300 2622 c0 -18 29 -27 43 -13 9 9 8 11 -7 5 -11 -4 -21 -2 -27 7
-6 10 -9 11 -9 1z"/>
<path d="M5636 2615 c-3 -9 -10 -13 -16 -10 -5 3 -10 1 -10 -4 0 -6 4 -11 9
-11 12 0 35 29 29 36 -3 3 -8 -2 -12 -11z"/>
<path d="M1230 2600 c0 -5 5 -10 10 -10 6 0 10 5 10 10 0 6 -4 10 -10 10 -5 0
-10 -4 -10 -10z"/>
<path d="M5410 2603 c0 -1 8 -7 18 -12 13 -7 19 -6 19 2 0 7 -9 13 -19 13 -10
0 -18 -1 -18 -3z"/>
<path d="M1370 2576 c0 -2 8 -10 18 -17 15 -13 16 -12 3 4 -13 16 -21 21 -21
13z"/>
<path d="M5376 2562 c-3 -5 1 -9 9 -9 8 0 12 4 9 9 -3 4 -7 8 -9 8 -2 0 -6 -4
-9 -8z"/>
<path d="M5644 2562 c4 -3 14 -7 22 -8 9 -1 13 0 10 4 -4 3 -14 7 -22 8 -9 1
-13 0 -10 -4z"/>
<path d="M5576 2551 c-3 -4 6 -6 19 -3 14 2 25 6 25 8 0 8 -39 4 -44 -5z"/>
<path d="M5650 2537 c0 -2 6 -10 14 -16 11 -9 16 -9 22 1 4 7 4 10 -1 6 -4 -4
-14 -3 -22 3 -7 6 -13 9 -13 6z"/>
<path d="M1380 2520 c-9 -6 -10 -10 -3 -10 6 0 15 5 18 10 8 12 4 12 -15 0z"/>
<path d="M5399 2513 c-13 -17 -13 -17 6 -3 11 8 22 16 24 17 2 2 0 3 -6 3 -6
0 -17 -8 -24 -17z"/>
<path d="M5588 2523 c6 -2 18 -2 25 0 6 3 1 5 -13 5 -14 0 -19 -2 -12 -5z"/>
<path d="M5630 2509 c0 -5 -5 -7 -12 -3 -7 4 -8 3 -4 -4 4 -6 13 -9 21 -6 8 4
12 10 9 15 -7 12 -14 11 -14 -2z"/>
<path d="M1406 2498 c3 -5 10 -6 15 -3 13 9 11 12 -6 12 -8 0 -12 -4 -9 -9z"/>
<path d="M1355 2490 c-3 -6 1 -7 9 -4 18 7 21 14 7 14 -6 0 -13 -4 -16 -10z"/>
<path d="M5331 2487 c-8 -10 -7 -14 2 -14 8 0 14 6 14 14 0 7 -1 13 -2 13 -2
0 -8 -6 -14 -13z"/>
<path d="M5373 2487 c0 -7 9 -13 19 -13 10 0 18 1 18 3 0 1 -8 7 -18 12 -13 7
-19 6 -19 -2z"/>
<path d="M1390 2481 c0 -6 4 -13 10 -16 6 -3 7 1 4 9 -7 18 -14 21 -14 7z"/>
<path d="M5627 2449 c4 -13 8 -18 11 -10 2 7 -1 18 -6 23 -8 8 -9 4 -5 -13z"/>
<path d="M5319 2448 c14 -19 32 -15 30 5 0 8 -2 8 -6 -1 -4 -10 -8 -10 -21 0
-15 12 -16 11 -3 -4z"/>
<path d="M5371 2442 c-1 -13 -5 -20 -11 -17 -5 3 -10 1 -10 -4 0 -16 20 -13
26 4 3 8 4 20 1 27 -3 7 -6 3 -6 -10z"/>
<path d="M5654 2440 c0 -13 4 -16 10 -10 7 7 7 13 0 20 -6 6 -10 3 -10 -10z"/>
<path d="M1395 2440 c-3 -5 -1 -10 4 -10 6 0 11 5 11 10 0 6 -2 10 -4 10 -3 0
-8 -4 -11 -10z"/>
<path d="M5310 2414 c8 -10 15 -20 16 -22 1 -2 4 1 7 5 3 5 -4 15 -16 23 -21
12 -21 12 -7 -6z"/>
<path d="M1410 2406 c0 -8 4 -17 9 -20 5 -4 7 3 4 14 -6 23 -13 26 -13 6z"/>
<path d="M276 2398 c3 -5 10 -6 15 -3 13 9 11 12 -6 12 -8 0 -12 -4 -9 -9z"/>
<path d="M1315 2400 c-3 -5 -1 -10 4 -10 6 0 11 5 11 10 0 6 -2 10 -4 10 -3 0
-8 -4 -11 -10z"/>
<path d="M5296 2383 c-6 -14 -5 -15 5 -6 7 7 10 15 7 18 -3 3 -9 -2 -12 -12z"/>
<path d="M5256 2382 c-3 -5 1 -9 9 -9 8 0 12 4 9 9 -3 4 -7 8 -9 8 -2 0 -6 -4
-9 -8z"/>
<path d="M5635 2380 c-3 -5 -1 -10 4 -10 6 0 11 5 11 10 0 6 -2 10 -4 10 -3 0
-8 -4 -11 -10z"/>
<path d="M5696 2378 c3 -5 10 -6 15 -3 13 9 11 12 -6 12 -8 0 -12 -4 -9 -9z"/>
<path d="M5310 2356 c0 -8 4 -17 9 -20 5 -4 7 3 4 14 -6 23 -13 26 -13 6z"/>
<path d="M5584 2345 c-4 -8 -9 -13 -13 -11 -4 3 -13 1 -21 -4 -11 -7 -12 -12
-4 -20 8 -8 15 -7 25 4 34 38 39 46 29 46 -6 0 -13 -7 -16 -15z"/>
<path d="M1490 2340 c0 -5 5 -10 11 -10 5 0 7 5 4 10 -3 6 -8 10 -11 10 -2 0
-4 -4 -4 -10z"/>
<path d="M5626 2337 c3 -10 9 -15 12 -12 3 3 0 11 -7 18 -10 9 -11 8 -5 -6z"/>
<path d="M5259 2327 c6 -8 7 -18 3 -22 -4 -5 -1 -5 6 -1 10 6 10 11 1 22 -6 8
-14 14 -16 14 -3 0 0 -6 6 -13z"/>
<path d="M5597 2326 c-4 -10 -3 -15 2 -11 5 3 11 0 13 -7 2 -6 14 -12 26 -13
11 -1 19 2 16 7 -3 5 -11 7 -17 5 -7 -2 -17 5 -23 16 -10 17 -12 18 -17 3z"/>
<path d="M5233 2312 c0 -12 5 -22 9 -22 11 0 10 12 -2 30 -7 12 -9 10 -7 -8z"/>
<path d="M1506 2302 c-3 -5 1 -9 9 -9 8 0 15 4 15 9 0 4 -4 8 -9 8 -6 0 -12
-4 -15 -8z"/>
<path d="M5190 2306 c0 -2 7 -7 16 -10 8 -3 12 -2 9 4 -6 10 -25 14 -25 6z"/>
<path d="M1386 2292 c-3 -5 1 -9 9 -9 8 0 12 4 9 9 -3 4 -7 8 -9 8 -2 0 -6 -4
-9 -8z"/>
<path d="M5185 2260 c14 -22 15 -40 2 -40 -5 0 -8 -3 -4 -6 3 -3 14 -1 24 5
11 6 13 11 5 11 -7 0 -11 4 -8 9 3 5 -2 15 -11 22 -15 12 -16 12 -8 -1z"/>
<path d="M5631 2263 c3 -20 -2 -27 -11 -13 -6 9 -10 10 -10 3 0 -19 17 -24 29
-9 9 10 9 16 1 21 -6 4 -10 3 -9 -2z"/>
<path d="M333 2235 c0 -8 4 -12 9 -9 5 3 6 10 3 15 -9 13 -12 11 -12 -6z"/>
<path d="M5582 2234 c-12 -13 -11 -18 2 -33 9 -10 13 -21 9 -24 -3 -4 -1 -7 5
-7 6 0 10 9 9 19 0 11 -4 19 -7 18 -3 -1 -6 3 -6 8 -1 6 2 9 7 8 4 -2 6 4 3
12 -7 18 -6 18 -22 -1z"/>
<path d="M1510 2231 c0 -6 4 -13 10 -16 6 -3 7 1 4 9 -7 18 -14 21 -14 7z"/>
<path d="M5200 2200 c-13 -8 -13 -10 2 -10 9 0 15 -7 14 -15 -3 -23 -16 -30
-17 -9 0 18 -1 18 -9 -1 -6 -14 -9 -16 -10 -5 -2 8 -2 18 -1 22 1 9 -27 4 -36
-7 -4 -4 -3 -5 4 -1 7 4 17 -2 22 -13 15 -28 14 -36 -4 -21 -8 7 -15 9 -15 4
0 -5 -5 -2 -11 6 -9 13 -10 13 -6 0 2 -8 9 -15 16 -15 6 0 16 -6 20 -14 7 -11
10 -9 16 8 3 12 10 19 15 16 12 -7 28 17 24 38 -4 25 -7 28 -24 17z"/>
<path d="M5656 2182 c-2 -4 -1 -14 4 -22 7 -11 9 -9 7 8 -1 24 -3 26 -11 14z"/>
<path d="M1571 2164 c0 -11 3 -14 6 -6 3 7 2 16 -1 19 -3 4 -6 -2 -5 -13z"/>
<path d="M1454 2153 c16 -20 36 -23 36 -6 0 4 -3 3 -7 0 -3 -4 -16 1 -27 10
-21 18 -21 18 -2 -4z"/>
<path d="M5055 2140 c3 -5 8 -10 11 -10 2 0 4 5 4 10 0 6 -5 10 -11 10 -5 0
-7 -4 -4 -10z"/>
<path d="M5110 2120 c0 -5 5 -10 10 -10 6 0 10 5 10 10 0 6 -4 10 -10 10 -5 0
-10 -4 -10 -10z"/>
<path d="M5135 2100 c-16 -18 -19 -18 -30 -3 -9 13 -14 13 -20 3 -5 -8 -4 -11
2 -7 6 4 14 0 17 -9 4 -9 9 -14 13 -11 3 4 11 0 18 -9 10 -14 13 -12 23 11 9
20 9 24 0 19 -8 -5 -9 -2 -5 9 8 22 4 21 -18 -3z m15 -20 c0 -5 -2 -10 -4 -10
-3 0 -8 5 -11 10 -3 6 -1 10 4 10 6 0 11 -4 11 -10z"/>
<path d="M5560 2116 c0 -2 7 -7 16 -10 8 -3 12 -2 9 4 -6 10 -25 14 -25 6z"/>
<path d="M1606 2078 c3 -4 9 -8 15 -8 5 0 9 4 9 8 0 5 -7 9 -15 9 -8 0 -12 -4
-9 -9z"/>
<path d="M1525 2069 c-10 -15 3 -25 16 -12 7 7 7 13 1 17 -6 3 -14 1 -17 -5z"/>
<path d="M1690 2059 c0 -5 5 -7 10 -4 6 3 10 8 10 11 0 2 -4 4 -10 4 -5 0 -10
-5 -10 -11z"/>
<path d="M5056 2039 c4 -7 0 -9 -14 -5 -11 4 -23 2 -27 -3 -4 -7 1 -8 11 -4
12 5 15 3 9 -6 -6 -10 -3 -11 14 -2 22 12 29 31 10 31 -5 0 -7 -5 -3 -11z"/>
<path d="M5552 2045 c4 -4 1 -13 -7 -19 -11 -8 -12 -15 -4 -26 9 -13 10 -13 6
0 -2 8 3 20 11 26 13 9 13 12 1 19 -8 5 -11 5 -7 0z"/>
<path d="M1650 2031 c0 -6 4 -13 10 -16 6 -3 7 1 4 9 -7 18 -14 21 -14 7z"/>
<path d="M1688 1992 c4 -10 7 -12 10 -4 2 7 9 9 15 5 7 -3 8 -2 4 2 -14 16
-36 14 -29 -3z"/>
<path d="M5011 1994 c0 -11 3 -14 6 -6 3 7 2 16 -1 19 -3 4 -6 -2 -5 -13z"/>
<path d="M4935 1980 c-3 -5 -1 -10 4 -10 6 0 11 5 11 10 0 6 -2 10 -4 10 -3 0
-8 -4 -11 -10z"/>
<path d="M5517 1975 c-4 -8 -3 -16 1 -19 4 -3 9 4 9 15 2 23 -3 25 -10 4z"/>
<path d="M1691 1954 c0 -11 3 -14 6 -6 3 7 2 16 -1 19 -3 4 -6 -2 -5 -13z"/>
<path d="M4960 1955 c-9 -10 -9 -15 -1 -15 6 0 11 5 11 11 0 5 5 7 12 3 7 -4
8 -3 4 4 -9 15 -11 15 -26 -3z"/>
<path d="M5580 1966 c0 -2 8 -10 18 -17 15 -13 16 -12 3 4 -13 16 -21 21 -21
13z"/>
<path d="M4919 1958 c-5 -18 -6 -38 -1 -34 7 8 12 36 6 36 -2 0 -4 -1 -5 -2z"/>
<path d="M1663 1938 c-4 -7 -8 -19 -9 -26 -2 -11 0 -11 13 0 14 12 15 11 5 -9
-8 -14 -9 -24 -2 -28 13 -8 32 4 25 15 -3 4 2 10 10 14 17 6 20 26 4 26 -5 0
-8 -4 -5 -9 3 -5 -1 -11 -9 -14 -9 -4 -12 -1 -8 9 3 7 0 14 -7 14 -6 0 -8 5
-5 10 3 6 4 10 1 10 -3 0 -8 -6 -13 -12z"/>
<path d="M1750 1906 c0 -2 7 -7 16 -10 8 -3 12 -2 9 4 -6 10 -25 14 -25 6z"/>
<path d="M4930 1901 c0 -9 -8 -11 -22 -8 -22 6 -22 6 -3 -9 17 -12 20 -12 28
2 5 8 6 18 3 21 -3 4 -6 1 -6 -6z"/>
<path d="M1710 1879 c0 -5 5 -7 10 -4 6 3 10 8 10 11 0 2 -4 4 -10 4 -5 0 -10
-5 -10 -11z"/>
<path d="M4974 1858 l-19 -23 23 19 c12 11 22 21 22 23 0 8 -8 2 -26 -19z"/>
<path d="M4839 1868 c-5 -19 -8 -50 -4 -46 7 7 15 48 9 48 -2 0 -4 -1 -5 -2z"/>
<path d="M4890 1852 c-8 -15 -11 -15 -20 -2 -7 10 -10 11 -10 2 0 -7 11 -17
25 -24 13 -6 22 -15 19 -20 -3 -5 -17 -2 -30 7 -13 8 -24 11 -24 5 0 -5 5 -10
10 -10 19 0 10 -19 -10 -19 -11 -1 -30 -1 -42 -2 -21 0 -21 -1 -5 -10 13 -8
22 -7 33 1 8 7 14 8 14 2 0 -5 -6 -15 -14 -21 -12 -10 -21 -9 -43 5 l-28 16
25 -20 c14 -11 21 -24 17 -29 -5 -4 -12 -2 -16 6 -6 10 -10 9 -15 -4 -3 -10
-1 -24 5 -32 10 -12 18 -8 51 24 21 20 38 33 38 28 0 -5 13 4 30 20 16 15 27
32 24 36 -2 4 0 10 5 14 13 7 4 32 -15 39 -7 3 -18 -3 -24 -12z m35 -23 c-9
-14 -34 2 -28 17 4 11 9 12 19 3 8 -6 11 -15 9 -20z m-25 -44 c-12 -13 -26
-22 -30 -20 -4 2 -22 -11 -40 -30 -32 -33 -50 -37 -50 -12 0 9 2 9 8 0 6 -9
21 0 52 32 24 24 47 42 51 39 4 -2 10 0 14 6 3 5 9 10 12 10 4 0 -4 -11 -17
-25z"/>
<path d="M1781 1857 c2 -1 11 -8 21 -15 12 -10 18 -10 24 -1 4 7 3 9 -4 5 -6
-3 -13 -2 -17 4 -3 5 -11 10 -17 10 -6 0 -9 -1 -7 -3z"/>
<path d="M5474 1842 c3 -5 0 -13 -6 -15 -9 -4 -10 -6 -1 -6 17 -1 25 16 12 25
-7 4 -9 3 -5 -4z"/>
<path d="M1760 1831 c-14 -3 -26 -12 -28 -20 -3 -16 17 -43 29 -36 4 3 11 -1
16 -9 6 -11 10 -11 19 -2 9 10 7 16 -8 25 -11 7 -17 8 -14 3 4 -6 -2 -8 -14
-5 -23 6 -22 24 1 31 11 3 11 2 -1 -7 -12 -8 -11 -10 5 -9 13 1 21 9 21 20 0
10 0 17 -1 17 0 -1 -11 -4 -25 -8z"/>
<path d="M5533 1815 c0 -8 4 -12 9 -9 5 3 6 10 3 15 -9 13 -12 11 -12 -6z"/>
<path d="M1793 1805 c0 -8 4 -15 9 -15 4 0 8 7 8 15 0 8 -4 15 -8 15 -5 0 -9
-7 -9 -15z"/>
<path d="M5494 1800 c0 -13 4 -16 10 -10 7 7 7 13 0 20 -6 6 -10 3 -10 -10z"/>
<path d="M4735 1800 c3 -5 8 -10 11 -10 2 0 4 5 4 10 0 6 -5 10 -11 10 -5 0
-7 -4 -4 -10z"/>
<path d="M4713 1752 c0 -12 5 -22 9 -22 11 0 10 12 -2 30 -7 12 -9 10 -7 -8z"/>
<path d="M4676 1742 c-3 -5 1 -9 9 -9 8 0 12 4 9 9 -3 4 -7 8 -9 8 -2 0 -6 -4
-9 -8z"/>
<path d="M5380 1740 c-13 -9 -13 -10 0 -10 9 -1 5 -6 -10 -15 -28 -16 -19 -20
11 -5 11 6 19 7 19 1 0 -10 -28 -25 -57 -30 -4 0 -2 -6 5 -13 15 -15 16 -32 2
-23 -13 8 -32 -4 -25 -16 9 -14 47 10 41 26 -6 16 32 47 46 39 4 -3 5 3 1 12
-5 12 -3 15 6 9 10 -6 11 -3 2 14 -13 23 -19 25 -41 11z m30 -10 c0 -5 -2 -10
-4 -10 -3 0 -8 5 -11 10 -3 6 -1 10 4 10 6 0 11 -4 11 -10z"/>
<path d="M5466 1741 c-3 -4 4 -7 14 -6 27 2 33 10 10 12 -11 1 -22 -2 -24 -6z"/>
<path d="M4700 1712 c0 -6 -8 -9 -17 -6 -15 5 -16 4 -3 -5 16 -11 40 3 27 16
-4 3 -7 1 -7 -5z"/>
<path d="M5480 1680 c-9 -6 -10 -10 -3 -10 6 0 15 5 18 10 8 12 4 12 -15 0z"/>
<path d="M5385 1670 c-3 -6 1 -7 9 -4 18 7 21 14 7 14 -6 0 -13 -4 -16 -10z"/>
<path d="M4550 1660 c0 -5 5 -10 11 -10 5 0 7 5 4 10 -3 6 -8 10 -11 10 -2 0
-4 -4 -4 -10z"/>
<path d="M4585 1660 c-3 -6 1 -7 9 -4 18 7 21 14 7 14 -6 0 -13 -4 -16 -10z"/>
<path d="M4610 1650 c-9 -6 -10 -10 -3 -10 6 0 15 5 18 10 8 12 4 12 -15 0z"/>
<path d="M4549 1623 c-13 -16 -12 -17 4 -4 16 13 21 21 13 21 -2 0 -10 -8 -17
-17z"/>
<path d="M4515 1600 c3 -5 8 -10 11 -10 2 0 4 5 4 10 0 6 -5 10 -11 10 -5 0
-7 -4 -4 -10z"/>
<path d="M5305 1600 c-8 -13 9 -20 25 -9 22 13 30 11 24 -6 -4 -8 -2 -15 4
-15 6 0 9 8 8 17 -3 19 -51 29 -61 13z"/>
<path d="M5385 1580 c-3 -6 1 -7 9 -4 18 7 21 14 7 14 -6 0 -13 -4 -16 -10z"/>
<path d="M4475 1570 c3 -5 8 -10 11 -10 2 0 4 5 4 10 0 6 -5 10 -11 10 -5 0
-7 -4 -4 -10z"/>
<path d="M4433 1563 c4 -3 3 -11 -3 -17 -6 -8 -3 -12 10 -13 11 -1 22 2 25 8
3 5 -1 6 -10 3 -11 -5 -14 -2 -9 10 4 10 1 16 -7 16 -7 0 -9 -3 -6 -7z"/>
<path d="M4333 1545 c0 -8 4 -12 9 -9 5 3 6 10 3 15 -9 13 -12 11 -12 -6z"/>
<path d="M5290 1520 c0 -5 5 -10 10 -10 6 0 10 5 10 10 0 6 -4 10 -10 10 -5 0
-10 -4 -10 -10z"/>
<path d="M5350 1521 c0 -6 4 -13 10 -16 6 -3 7 1 4 9 -7 18 -14 21 -14 7z"/>
<path d="M4397 1509 c7 -7 15 -10 18 -7 3 3 -2 9 -12 12 -14 6 -15 5 -6 -5z"/>
<path d="M4295 1500 c-3 -5 -1 -10 4 -10 6 0 11 5 11 10 0 6 -2 10 -4 10 -3 0
-8 -4 -11 -10z"/>
<path d="M5316 1493 c-6 -14 -5 -15 5 -6 7 7 10 15 7 18 -3 3 -9 -2 -12 -12z"/>
<path d="M4235 1460 c3 -5 8 -10 11 -10 2 0 4 5 4 10 0 6 -5 10 -11 10 -5 0
-7 -4 -4 -10z"/>
<path d="M5300 1466 c0 -2 8 -10 18 -17 15 -13 16 -12 3 4 -13 16 -21 21 -21
13z"/>
<path d="M676 1447 c3 -10 9 -15 12 -12 3 3 0 11 -7 18 -10 9 -11 8 -5 -6z"/>
<path d="M4175 1440 c-3 -5 -1 -10 4 -10 6 0 11 5 11 10 0 6 -2 10 -4 10 -3 0
-8 -4 -11 -10z"/>
<path d="M4270 1446 c0 -2 7 -7 16 -10 8 -3 12 -2 9 4 -6 10 -25 14 -25 6z"/>
<path d="M5290 1419 c0 -5 5 -7 10 -4 6 3 10 8 10 11 0 2 -4 4 -10 4 -5 0 -10
-5 -10 -11z"/>
<path d="M4020 1406 c0 -2 8 -10 18 -17 15 -13 16 -12 3 4 -13 16 -21 21 -21
13z"/>
<path d="M4073 1393 c0 -9 4 -10 14 -2 7 6 13 12 13 14 0 1 -6 2 -13 2 -8 0
-14 -6 -14 -14z"/>
<path d="M4110 1379 c0 -5 5 -7 10 -4 6 3 10 8 10 11 0 2 -4 4 -10 4 -5 0 -10
-5 -10 -11z"/>
<path d="M3966 1358 c3 -5 10 -6 15 -3 13 9 11 12 -6 12 -8 0 -12 -4 -9 -9z"/>
<path d="M4046 1358 c3 -4 9 -8 15 -8 5 0 9 4 9 8 0 5 -7 9 -15 9 -8 0 -12 -4
-9 -9z"/>
<path d="M4120 1360 c-9 -6 -10 -10 -3 -10 6 0 15 5 18 10 8 12 4 12 -15 0z"/>
<path d="M5196 1342 c-3 -5 1 -9 9 -9 8 0 12 4 9 9 -3 4 -7 8 -9 8 -2 0 -6 -4
-9 -8z"/>
<path d="M3980 1331 c0 -7 -5 -9 -12 -5 -7 5 -8 3 -3 -5 5 -9 10 -10 18 -2 6
6 8 14 4 18 -4 3 -7 1 -7 -6z"/>
<path d="M3921 1301 c-8 -5 -9 -11 -3 -15 5 -3 12 1 16 9 6 17 6 18 -13 6z"/>
<path d="M5135 1300 c3 -5 8 -10 11 -10 2 0 4 5 4 10 0 6 -5 10 -11 10 -5 0
-7 -4 -4 -10z"/>
<path d="M5157 1285 c-4 -8 -3 -16 1 -19 4 -3 9 4 9 15 2 23 -3 25 -10 4z"/>
<path d="M4076 1281 c-3 -5 1 -11 9 -14 9 -4 12 -1 8 9 -6 16 -10 17 -17 5z"/>
<path d="M4136 1282 c-3 -5 -1 -14 3 -20 6 -10 10 -10 20 1 9 12 8 16 -3 20
-9 4 -17 3 -20 -1z"/>
<path d="M5112 1281 c2 -7 7 -12 11 -12 12 1 9 15 -3 20 -7 2 -11 -2 -8 -8z"/>
<path d="M5093 1246 c-9 -11 -9 -15 0 -19 7 -3 14 3 14 14 2 22 2 22 -14 5z"/>
<path d="M5150 1219 c0 -5 5 -7 10 -4 6 3 10 8 10 11 0 2 -4 4 -10 4 -5 0 -10
-5 -10 -11z"/>
<path d="M5064 1212 c-8 -5 -7 -11 4 -22 14 -13 15 -12 9 2 -3 9 -1 19 6 22 7
2 8 5 2 5 -5 0 -15 -3 -21 -7z"/>
<path d="M5115 1211 c-3 -5 -2 -12 3 -15 5 -3 9 1 9 9 0 17 -3 19 -12 6z"/>
<path d="M5033 1157 c-3 -5 0 -14 6 -20 9 -9 11 -8 6 5 -6 14 -2 16 18 12 14
-2 28 -1 30 3 3 5 -8 8 -25 8 -16 1 -32 -3 -35 -8z"/>
<path d="M4995 1114 c-11 -8 -19 -20 -17 -25 1 -5 -4 -9 -12 -9 -8 0 -17 -3
-19 -7 -3 -5 5 -8 18 -8 16 0 22 5 20 17 -3 15 20 33 38 30 4 -1 7 3 7 8 0 14
-12 12 -35 -6z"/>
<path d="M4920 1040 c-8 -5 -10 -10 -5 -10 6 0 17 5 25 10 8 5 11 10 5 10 -5
0 -17 -5 -25 -10z"/>
<path d="M5053 1035 c0 -8 4 -12 9 -9 5 3 6 10 3 15 -9 13 -12 11 -12 -6z"/>
<path d="M4949 1017 c6 -8 7 -18 3 -22 -4 -5 -1 -5 6 -1 10 6 10 11 1 22 -6 8
-14 14 -16 14 -3 0 0 -6 6 -13z"/>
<path d="M4923 998 c-11 -19 -12 -37 -3 -43 5 -3 7 3 5 12 -1 10 2 24 8 31 5
6 7 12 4 12 -3 0 -9 -6 -14 -12z"/>
<path d="M4880 980 c-9 -6 -10 -10 -3 -10 6 0 15 5 18 10 8 12 4 12 -15 0z"/>
<path d="M4950 966 c0 -2 7 -7 16 -10 8 -3 12 -2 9 4 -6 10 -25 14 -25 6z"/>
<path d="M4830 921 c0 -6 4 -13 10 -16 6 -3 7 1 4 9 -7 18 -14 21 -14 7z"/>
<path d="M4766 883 c-6 -14 -5 -15 5 -6 7 7 10 15 7 18 -3 3 -9 -2 -12 -12z"/>
<path d="M4740 860 c8 -5 20 -10 25 -10 6 0 3 5 -5 10 -8 5 -19 10 -25 10 -5
0 -3 -5 5 -10z"/>
<path d="M4805 860 c-3 -6 1 -7 9 -4 18 7 21 14 7 14 -6 0 -13 -4 -16 -10z"/>
<path d="M4710 841 c0 -6 4 -12 8 -15 5 -3 9 1 9 9 0 8 -4 15 -9 15 -4 0 -8
-4 -8 -9z"/>
<path d="M4570 730 c-9 -6 -10 -10 -3 -10 6 0 15 5 18 10 8 12 4 12 -15 0z"/>
<path d="M4550 679 c0 -5 5 -7 10 -4 6 3 10 8 10 11 0 2 -4 4 -10 4 -5 0 -10
-5 -10 -11z"/>
<path d="M4435 621 c-3 -5 -2 -12 3 -15 5 -3 9 1 9 9 0 17 -3 19 -12 6z"/>
<path d="M4469 603 c-13 -16 -12 -17 4 -4 16 13 21 21 13 21 -2 0 -10 -8 -17
-17z"/>
<path d="M4296 518 c3 -5 10 -6 15 -3 13 9 11 12 -6 12 -8 0 -12 -4 -9 -9z"/>
<path d="M4273 505 c0 -8 4 -12 9 -9 5 3 6 10 3 15 -9 13 -12 11 -12 -6z"/>
<path d="M4095 431 c-3 -5 -2 -12 3 -15 5 -3 9 1 9 9 0 17 -3 19 -12 6z"/>
<path d="M3933 335 c0 -8 4 -12 9 -9 5 3 6 10 3 15 -9 13 -12 11 -12 -6z"/>
<path d="M3335 220 c-3 -5 -1 -10 4 -10 6 0 11 5 11 10 0 6 -2 10 -4 10 -3 0
-8 -4 -11 -10z"/>
</g>
</svg>
